<svg xmlns="http://www.w3.org/2000/svg" xmlns:xlink="http://www.w3.org/1999/xlink" contentStyleType="text/css" height="177px" preserveAspectRatio="none" style="width:233px;height:177px;background:#FFFFFF;" version="1.1" viewBox="0 0 233 177" width="233px" zoomAndPan="magnify"><defs/><g><!--class nz.ac.wgtn.swen225.lc.app.panels.DefaultPanel--><a href="DefaultPanel.html" target="_top" title="DefaultPanel.html" xlink:actuate="onRequest" xlink:href="DefaultPanel.html" xlink:show="new" xlink:title="DefaultPanel.html" xlink:type="simple"><g id="elem_nz.ac.wgtn.swen225.lc.app.panels.DefaultPanel"><rect codeLine="7" fill="#F1F1F1" height="64.1826" id="nz.ac.wgtn.swen225.lc.app.panels.DefaultPanel" rx="2.5" ry="2.5" style="stroke:#181818;stroke-width:0.5;" width="220.332" x="6" y="87"/><ellipse cx="27.9201" cy="106.584" fill="#ADD1B2" rx="11" ry="11" style="stroke:#181818;stroke-width:1.0;"/><path d="M32.4044,112.1777 Q30.7794,113.3027 28.8732,113.3027 Q26.4826,113.3027 25.2169,111.6621 Q23.9669,110.0215 23.9669,106.959 Q23.9669,104.0371 25.1701,102.334 Q26.3888,100.6152 28.8732,100.6152 Q29.7638,100.6152 30.6232,100.8496 Q31.4982,101.0684 32.2169,101.584 L31.5763,103.1152 Q30.2169,102.3496 28.8732,102.3496 Q27.4044,102.3496 26.6701,103.4277 Q25.9513,104.5059 25.9513,106.959 Q25.9513,111.584 28.8732,111.584 Q30.1544,111.584 31.7951,110.6309 L32.4044,112.1777 Z " fill="#000000"/><text fill="#000000" font-family="sans-serif" font-size="14" lengthAdjust="spacing" textLength="88.5664" x="85.6517" y="106.0752">DefaultPanel</text><text fill="#000000" font-family="sans-serif" font-size="10" lengthAdjust="spacing" textLength="172.9541" x="43.4579" y="119.0684">nz.ac.wgtn.swen225.lc.app.panels</text><line style="stroke:#181818;stroke-width:0.5;" x1="7" x2="225.332" y1="126.168" y2="126.168"/><ellipse cx="17" cy="140.1753" fill="#84BE84" rx="3" ry="3" style="stroke:#038048;stroke-width:1.0;"/><text fill="#000000" font-family="sans-serif" font-size="14" lengthAdjust="spacing" textLength="194.332" x="26" y="144.2432">DefaultPanel(Color, int, int)</text></g></a><!--class javax.swing.JPanel--><g id="elem_javax.swing.JPanel"><rect codeLine="11" fill="#F1F1F1" height="39.168" id="javax.swing.JPanel" rx="2.5" ry="2.5" style="stroke:#181818;stroke-width:0.5;" width="91.624" x="70" y="12"/><ellipse cx="85" cy="31.584" fill="#ADD1B2" rx="11" ry="11" style="stroke:#181818;stroke-width:1.0;"/><path d="M89.4844,37.1777 Q87.8594,38.3027 85.9531,38.3027 Q83.5625,38.3027 82.2969,36.6621 Q81.0469,35.0215 81.0469,31.959 Q81.0469,29.0371 82.25,27.334 Q83.4688,25.6152 85.9531,25.6152 Q86.8438,25.6152 87.7031,25.8496 Q88.5781,26.0684 89.2969,26.584 L88.6563,28.1152 Q87.2969,27.3496 85.9531,27.3496 Q84.4844,27.3496 83.75,28.4277 Q83.0313,29.5059 83.0313,31.959 Q83.0313,36.584 85.9531,36.584 Q87.2344,36.584 88.875,35.6309 L89.4844,37.1777 Z " fill="#000000"/><text fill="#000000" font-family="sans-serif" font-size="14" lengthAdjust="spacing" textLength="44.2559" x="106.6841" y="31.0752">JPanel</text><text fill="#000000" font-family="sans-serif" font-size="10" lengthAdjust="spacing" textLength="59.624" x="99" y="44.0684">javax.swing</text></g><polygon fill="none" points="116,51.0522,110,69.0522,122,69.0522,116,51.0522" style="stroke:#181818;stroke-width:1.0;"/><path d="M116,69.0522 C116,79.4643 116,74.732 116,86.7053 " fill="none" style="stroke:#181818;stroke-width:1.0;"/><text fill="#888888" font-family="sans-serif" font-size="10" lengthAdjust="spacing" textLength="3.5156" x="110.7422" y="155.0537">&#160;</text><text fill="#888888" font-family="sans-serif" font-size="10" lengthAdjust="spacing" textLength="185.2539" x="19.873" y="167.207">UMLDoclet 2.2.0, PlantUML 1.2024.6</text><!--SRC=[bP51Qm8n48Nl_egfK52gmIxjfOWNFPKMXDAJUXZMsTr8TX8oKQjj_tkpsHuMMoZD8M6-ztYy8G00LyvZMICOFDbz0Aaf86El5oKG2i1OapZCwOKSUWpM0rkcf5TwIq2r2oSeD9cjND8OLjc84yyDYa1_AlfC3xTtimKLk3TXYKncpTzuCkEpmbmToy1AZiHPTgzChj0vvHgdz045_ZAfRZYiLjrHLQ4scmsyfrRDkUdAWxarrez0SqZNCDa-Vz_XyRBz3W_u5ZjfBbFHpgnQSnlqayFqOpp-ts9j9U907WfhcsVDhyzF2vkR-7MPojHa14k372A5wmDvqPO7moy0]--></g></svg>