<svg xmlns="http://www.w3.org/2000/svg" xmlns:xlink="http://www.w3.org/1999/xlink" contentStyleType="text/css" height="211px" preserveAspectRatio="none" style="width:269px;height:211px;background:#FFFFFF;" version="1.1" viewBox="0 0 269 211" width="269px" zoomAndPan="magnify"><defs/><g><!--class nz.ac.wgtn.swen225.lc.app.panels.GameGraphicsPane--><a href="GameGraphicsPane.html" target="_top" title="GameGraphicsPane.html" xlink:actuate="onRequest" xlink:href="GameGraphicsPane.html" xlink:show="new" xlink:title="GameGraphicsPane.html" xlink:type="simple"><g id="elem_nz.ac.wgtn.swen225.lc.app.panels.GameGraphicsPane"><rect codeLine="7" fill="#F1F1F1" height="98.2119" id="nz.ac.wgtn.swen225.lc.app.panels.GameGraphicsPane" rx="2.5" ry="2.5" style="stroke:#181818;stroke-width:0.5;" width="256.624" x="6" y="87"/><ellipse cx="44.2515" cy="106.584" fill="#ADD1B2" rx="11" ry="11" style="stroke:#181818;stroke-width:1.0;"/><path d="M48.7358,112.1777 Q47.1108,113.3027 45.2046,113.3027 Q42.814,113.3027 41.5483,111.6621 Q40.2983,110.0215 40.2983,106.959 Q40.2983,104.0371 41.5015,102.334 Q42.7202,100.6152 45.2046,100.6152 Q46.0952,100.6152 46.9546,100.8496 Q47.8296,101.0684 48.5483,101.584 L47.9077,103.1152 Q46.5483,102.3496 45.2046,102.3496 Q43.7358,102.3496 43.0015,103.4277 Q42.2827,104.5059 42.2827,106.959 Q42.2827,111.584 45.2046,111.584 Q46.4858,111.584 48.1265,110.6309 L48.7358,112.1777 Z " fill="#000000"/><text fill="#000000" font-family="sans-serif" font-size="14" lengthAdjust="spacing" textLength="136.5205" x="81.6353" y="106.0752">GameGraphicsPane</text><text fill="#000000" font-family="sans-serif" font-size="10" lengthAdjust="spacing" textLength="172.9541" x="63.4185" y="119.0684">nz.ac.wgtn.swen225.lc.app.panels</text><line style="stroke:#181818;stroke-width:0.5;" x1="7" x2="261.624" y1="126.168" y2="126.168"/><ellipse cx="17" cy="140.1753" fill="#84BE84" rx="3" ry="3" style="stroke:#038048;stroke-width:1.0;"/><text fill="#000000" font-family="sans-serif" font-size="14" lengthAdjust="spacing" textLength="195.6855" x="26" y="144.2432">GameGraphicsPane(int, int)</text><ellipse cx="17" cy="157.1899" fill="#84BE84" rx="3" ry="3" style="stroke:#038048;stroke-width:1.0;"/><text fill="#000000" font-family="sans-serif" font-size="14" lengthAdjust="spacing" textLength="230.624" x="26" y="161.2578">paintComponent(Graphics): void</text><ellipse cx="17" cy="174.2046" fill="#84BE84" rx="3" ry="3" style="stroke:#038048;stroke-width:1.0;"/><text fill="#000000" font-family="sans-serif" font-size="14" lengthAdjust="spacing" textLength="126.998" x="26" y="178.2725">getMiddle(): Point</text></g></a><!--class javax.swing.JPanel--><g id="elem_javax.swing.JPanel"><rect codeLine="13" fill="#F1F1F1" height="39.168" id="javax.swing.JPanel" rx="2.5" ry="2.5" style="stroke:#181818;stroke-width:0.5;" width="91.624" x="88.5" y="12"/><ellipse cx="103.5" cy="31.584" fill="#ADD1B2" rx="11" ry="11" style="stroke:#181818;stroke-width:1.0;"/><path d="M107.9844,37.1777 Q106.3594,38.3027 104.4531,38.3027 Q102.0625,38.3027 100.7969,36.6621 Q99.5469,35.0215 99.5469,31.959 Q99.5469,29.0371 100.75,27.334 Q101.9688,25.6152 104.4531,25.6152 Q105.3438,25.6152 106.2031,25.8496 Q107.0781,26.0684 107.7969,26.584 L107.1563,28.1152 Q105.7969,27.3496 104.4531,27.3496 Q102.9844,27.3496 102.25,28.4277 Q101.5313,29.5059 101.5313,31.959 Q101.5313,36.584 104.4531,36.584 Q105.7344,36.584 107.375,35.6309 L107.9844,37.1777 Z " fill="#000000"/><text fill="#000000" font-family="sans-serif" font-size="14" lengthAdjust="spacing" textLength="44.2559" x="125.1841" y="31.0752">JPanel</text><text fill="#000000" font-family="sans-serif" font-size="10" lengthAdjust="spacing" textLength="59.624" x="117.5" y="44.0684">javax.swing</text></g><polygon fill="none" points="134.5,51.3001,128.5,69.3001,140.5,69.3001,134.5,51.3001" style="stroke:#181818;stroke-width:1.0;"/><path d="M134.5,69.3001 C134.5,79.3564 134.5,74.2443 134.5,86.8779 " fill="none" style="stroke:#181818;stroke-width:1.0;"/><text fill="#888888" font-family="sans-serif" font-size="10" lengthAdjust="spacing" textLength="3.5156" x="129.2422" y="189.0537">&#160;</text><text fill="#888888" font-family="sans-serif" font-size="10" lengthAdjust="spacing" textLength="185.2539" x="38.373" y="201.207">UMLDoclet 2.2.0, PlantUML 1.2024.6</text><!--SRC=[bL9DIyD04BttLum58SLsgK4lfVIYK10B0V7KzZ0aqsHbCxjarzPM_UzE4ajB5CGzx3BllVbwB030XQimBn4Cxkrh05zIGCPUJoZm582n9EymfIToM66m5R1bQlX2PmHKkh27ZIQJ-IugnGehS8Ed1hs7_jJh0qskRsPpgJolq1KwzGaohVYR6i_ue31LkpomyZlYEBvL9bNed78YDBuFwE4laUesWEMo2waYb6QzXlTcmlfSTIMHvZ04kGOdZKE9xspfn0aEqL4-cC3MwkoaooaiT9OPYeHAh2GrtEVlXZpKxSoP3I-unJTPJdFUR7mMgrRS5lg9m_HZDFg_G-rOiX9LiB6sVbRyl7YyjwcHln2hM8s7a1Za82XSRgdosd8q-080]--></g></svg>