<svg xmlns="http://www.w3.org/2000/svg" xmlns:xlink="http://www.w3.org/1999/xlink" contentStyleType="text/css" height="262px" preserveAspectRatio="none" style="width:224px;height:262px;background:#FFFFFF;" version="1.1" viewBox="0 0 224 262" width="224px" zoomAndPan="magnify"><defs/><g><!--class nz.ac.wgtn.swen225.lc.domain.tiles.DirectionalIce.TYPE--><a href="DirectionalIce.TYPE.html" target="_top" title="DirectionalIce.TYPE.html" xlink:actuate="onRequest" xlink:href="DirectionalIce.TYPE.html" xlink:show="new" xlink:title="DirectionalIce.TYPE.html" xlink:type="simple"><g id="elem_nz.ac.wgtn.swen225.lc.domain.tiles.DirectionalIce.TYPE"><rect codeLine="7" fill="#F1F1F1" height="149.2559" id="nz.ac.wgtn.swen225.lc.domain.tiles.DirectionalIce.TYPE" rx="2.5" ry="2.5" style="stroke:#181818;stroke-width:0.5;" width="211.7119" x="6" y="87"/><ellipse cx="21" cy="106.584" fill="#EB937F" rx="11" ry="11" style="stroke:#181818;stroke-width:1.0;"/><path d="M24.7813,113.084 L18.125,113.084 L18.125,100.834 L24.7188,100.834 L24.7188,102.5527 L20.0156,102.5527 L20.0156,105.6621 L24.5469,105.6621 L24.5469,107.3652 L20.0156,107.3652 L20.0156,111.3652 L24.7813,111.3652 L24.7813,113.084 Z " fill="#000000"/><text fill="#000000" font-family="sans-serif" font-size="14" lengthAdjust="spacing" textLength="136.3564" x="56.6777" y="106.0752">DirectionalIce.TYPE</text><text fill="#000000" font-family="sans-serif" font-size="10" lengthAdjust="spacing" textLength="179.7119" x="35" y="119.0684">nz.ac.wgtn.swen225.lc.domain.tiles</text><line style="stroke:#181818;stroke-width:0.5;" x1="7" x2="216.7119" y1="126.168" y2="126.168"/><ellipse cx="17" cy="140.1753" fill="none" rx="3" ry="3" style="stroke:#038048;stroke-width:1.0;"/><text fill="#000000" font-family="sans-serif" font-size="14" lengthAdjust="spacing" text-decoration="underline" textLength="69.3916" x="26" y="144.2432">NorthEast</text><ellipse cx="17" cy="157.1899" fill="none" rx="3" ry="3" style="stroke:#038048;stroke-width:1.0;"/><text fill="#000000" font-family="sans-serif" font-size="14" lengthAdjust="spacing" text-decoration="underline" textLength="71.374" x="26" y="161.2578">SouthEast</text><ellipse cx="17" cy="174.2046" fill="none" rx="3" ry="3" style="stroke:#038048;stroke-width:1.0;"/><text fill="#000000" font-family="sans-serif" font-size="14" lengthAdjust="spacing" text-decoration="underline" textLength="76.2959" x="26" y="178.2725">SouthWest</text><ellipse cx="17" cy="191.2192" fill="none" rx="3" ry="3" style="stroke:#038048;stroke-width:1.0;"/><text fill="#000000" font-family="sans-serif" font-size="14" lengthAdjust="spacing" text-decoration="underline" textLength="74.3135" x="26" y="195.2871">NorthWest</text><ellipse cx="17" cy="208.2339" fill="none" rx="3" ry="3" style="stroke:#038048;stroke-width:1.0;"/><text fill="#000000" font-family="sans-serif" font-size="14" lengthAdjust="spacing" textLength="106.5586" x="26" y="212.3018">a: PlayerAction</text><ellipse cx="17" cy="225.2485" fill="none" rx="3" ry="3" style="stroke:#038048;stroke-width:1.0;"/><text fill="#000000" font-family="sans-serif" font-size="14" lengthAdjust="spacing" textLength="106.873" x="26" y="229.3164">b: PlayerAction</text></g></a><!--class nz.ac.wgtn.swen225.lc.domain.tiles.DirectionalIce--><a href="DirectionalIce.html" target="_top" title="DirectionalIce.html" xlink:actuate="onRequest" xlink:href="DirectionalIce.html" xlink:show="new" xlink:title="DirectionalIce.html" xlink:type="simple"><g id="elem_nz.ac.wgtn.swen225.lc.domain.tiles.DirectionalIce"><rect codeLine="16" fill="#F1F1F1" height="39.168" id="nz.ac.wgtn.swen225.lc.domain.tiles.DirectionalIce" rx="2.5" ry="2.5" style="stroke:#181818;stroke-width:0.5;" width="211.7119" x="6" y="12"/><ellipse cx="21" cy="31.584" fill="#ADD1B2" rx="11" ry="11" style="stroke:#181818;stroke-width:1.0;"/><path d="M25.4844,37.1777 Q23.8594,38.3027 21.9531,38.3027 Q19.5625,38.3027 18.2969,36.6621 Q17.0469,35.0215 17.0469,31.959 Q17.0469,29.0371 18.25,27.334 Q19.4688,25.6152 21.9531,25.6152 Q22.8438,25.6152 23.7031,25.8496 Q24.5781,26.0684 25.2969,26.584 L24.6563,28.1152 Q23.2969,27.3496 21.9531,27.3496 Q20.4844,27.3496 19.75,28.4277 Q19.0313,29.5059 19.0313,31.959 Q19.0313,36.584 21.9531,36.584 Q23.2344,36.584 24.875,35.6309 L25.4844,37.1777 Z " fill="#000000"/><text fill="#000000" font-family="sans-serif" font-size="14" lengthAdjust="spacing" textLength="96.7285" x="76.4917" y="31.0752">DirectionalIce</text><text fill="#000000" font-family="sans-serif" font-size="10" lengthAdjust="spacing" textLength="179.7119" x="35" y="44.0684">nz.ac.wgtn.swen225.lc.domain.tiles</text></g></a><ellipse cx="112" cy="59.1123" fill="#FFFFFF" rx="8" ry="8" style="stroke:#181818;stroke-width:1.0;"/><line style="stroke:#181818;stroke-width:1.0;" x1="112" x2="112" y1="67.1123" y2="51.1123"/><line style="stroke:#181818;stroke-width:1.0;" x1="104" x2="120" y1="59.1123" y2="59.1123"/><path d="M112,67.1123 C112,76.8888 112,73.5766 112,86.8306 " fill="none" style="stroke:#181818;stroke-width:1.0;"/><text fill="#888888" font-family="sans-serif" font-size="10" lengthAdjust="spacing" textLength="3.5156" x="106.7422" y="240.0537">&#160;</text><text fill="#888888" font-family="sans-serif" font-size="10" lengthAdjust="spacing" textLength="185.2539" x="15.873" y="252.207">UMLDoclet 2.2.0, PlantUML 1.2024.6</text><!--SRC=[lPB1IWCn48RlVOgn82YreIvwAL8GseEWKgWYqlOmfjDk89aioTJIbhwxwQuWwghemLm2_nV-35y2071G15mu18jhlnI8ZWGP6us48980ewDOeAOH5HXGV03sJ2NFpOo0N25hc1koi_WnJMMvJt6P4oyTD2-YsL3tzApNDu6q6CzehpIfkyVXOCAljDFZZKAjLWjX5LV4MNQkh5Opxz2m4cCfDW4Z_7nCrTm3ut5Dgd9nTZg5RJdjVcsZe1YzWzQj3v8FC4eD6oLltx87gcLbvplMmYuCqqDGk2ndUmDFDM1NQTKMO_pIwpye_Mop4bcDz_kwLhlzntUjV10B1PXxlzycV7zptVVQfg-SgKnrJlOYML8AXyyKOYeuEdu1]--></g></svg>