<svg xmlns="http://www.w3.org/2000/svg" xmlns:xlink="http://www.w3.org/1999/xlink" contentStyleType="text/css" height="287px" preserveAspectRatio="none" style="width:283px;height:287px;background:#FFFFFF;" version="1.1" viewBox="0 0 283 287" width="283px" zoomAndPan="magnify"><defs/><g><!--class nz.ac.wgtn.swen225.lc.domain.tiles.KeyDoor--><a href="KeyDoor.html" target="_top" title="KeyDoor.html" xlink:actuate="onRequest" xlink:href="KeyDoor.html" xlink:show="new" xlink:title="KeyDoor.html" xlink:type="simple"><g id="elem_nz.ac.wgtn.swen225.lc.domain.tiles.KeyDoor"><rect codeLine="7" fill="#F1F1F1" height="132.2412" id="nz.ac.wgtn.swen225.lc.domain.tiles.KeyDoor" rx="2.5" ry="2.5" style="stroke:#181818;stroke-width:0.5;" width="270.2549" x="6" y="129"/><ellipse cx="47.3443" cy="148.584" fill="#ADD1B2" rx="11" ry="11" style="stroke:#181818;stroke-width:1.0;"/><path d="M51.8287,154.1777 Q50.2037,155.3027 48.2975,155.3027 Q45.9068,155.3027 44.6412,153.6621 Q43.3912,152.0215 43.3912,148.959 Q43.3912,146.0371 44.5943,144.334 Q45.8131,142.6152 48.2975,142.6152 Q49.1881,142.6152 50.0475,142.8496 Q50.9225,143.0684 51.6412,143.584 L51.0006,145.1152 Q49.6412,144.3496 48.2975,144.3496 Q46.8287,144.3496 46.0943,145.4277 Q45.3756,146.5059 45.3756,148.959 Q45.3756,153.584 48.2975,153.584 Q49.5787,153.584 51.2193,152.6309 L51.8287,154.1777 Z " fill="#000000"/><text fill="#000000" font-family="sans-serif" font-size="14" lengthAdjust="spacing" textLength="60.0811" x="127.0141" y="148.0752">KeyDoor</text><text fill="#000000" font-family="sans-serif" font-size="10" lengthAdjust="spacing" textLength="179.7119" x="67.1986" y="161.0684">nz.ac.wgtn.swen225.lc.domain.tiles</text><line style="stroke:#181818;stroke-width:0.5;" x1="7" x2="275.2549" y1="168.168" y2="168.168"/><ellipse cx="17" cy="182.1753" fill="#84BE84" rx="3" ry="3" style="stroke:#038048;stroke-width:1.0;"/><text fill="#000000" font-family="sans-serif" font-size="14" lengthAdjust="spacing" textLength="163.4131" x="26" y="186.2432">KeyDoor(Point, Colour)</text><ellipse cx="17" cy="199.1899" fill="#84BE84" rx="3" ry="3" style="stroke:#038048;stroke-width:1.0;"/><text fill="#000000" font-family="sans-serif" font-size="14" lengthAdjust="spacing" textLength="94.6846" x="26" y="203.2578">color(): Color</text><ellipse cx="17" cy="216.2046" fill="#84BE84" rx="3" ry="3" style="stroke:#038048;stroke-width:1.0;"/><text fill="#000000" font-family="sans-serif" font-size="14" lengthAdjust="spacing" textLength="140.4238" x="26" y="220.2725">toJson(): JSONType</text><polygon fill="#FFFF44" points="17,228.2192,21,232.2192,17,236.2192,13,232.2192" style="stroke:#B38D22;stroke-width:1.0;"/><text fill="#000000" font-family="sans-serif" font-size="14" lengthAdjust="spacing" textLength="244.2549" x="26" y="237.2871">meetsUnlockReqs(Entity): boolean</text><polygon fill="#FFFF44" points="17,245.2339,21,249.2339,17,253.2339,13,249.2339" style="stroke:#B38D22;stroke-width:1.0;"/><text fill="#000000" font-family="sans-serif" font-size="14" lengthAdjust="spacing" textLength="158.5938" x="26" y="254.3018">onUnlock(Entity): void</text></g></a><!--class nz.ac.wgtn.swen225.lc.domain.tiles.Door--><a href="Door.html" target="_top" title="Door.html" xlink:actuate="onRequest" xlink:href="Door.html" xlink:show="new" xlink:title="Door.html" xlink:type="simple"><g id="elem_nz.ac.wgtn.swen225.lc.domain.tiles.Door"><rect codeLine="15" fill="#F1F1F1" height="81.1973" id="nz.ac.wgtn.swen225.lc.domain.tiles.Door" rx="2.5" ry="2.5" style="stroke:#181818;stroke-width:0.5;" width="270.1797" x="6" y="12"/><ellipse cx="47.3149" cy="31.584" fill="#A9DCDF" rx="11" ry="11" style="stroke:#181818;stroke-width:1.0;"/><path d="M52.9555,37.334 L50.9711,37.334 L49.6899,33.2402 L46.2211,33.2402 L44.9086,37.334 L42.9399,37.334 L46.9399,25.084 L48.9555,25.084 L52.9555,37.334 Z M49.1274,31.5215 L47.9399,27.8184 L46.7836,31.5215 L49.1274,31.5215 Z " fill="#000000"/><text fill="#000000" font-family="sans-serif" font-size="14" font-style="italic" lengthAdjust="spacing" textLength="33.6875" x="140.17" y="31.0752">Door</text><text fill="#000000" font-family="sans-serif" font-size="10" font-style="italic" lengthAdjust="spacing" textLength="179.7021" x="67.1626" y="44.0684">nz.ac.wgtn.swen225.lc.domain.tiles</text><line style="stroke:#181818;stroke-width:0.5;" x1="7" x2="275.1797" y1="51.168" y2="51.168"/><polygon fill="#FFFF44" points="17,60.1753,21,64.1753,17,68.1753,13,64.1753" style="stroke:#B38D22;stroke-width:1.0;"/><text fill="#000000" font-family="sans-serif" font-size="14" font-style="italic" lengthAdjust="spacing" textLength="244.1797" x="26" y="69.2432">meetsUnlockReqs(Entity): boolean</text><polygon fill="#FFFF44" points="17,77.1899,21,81.1899,17,85.1899,13,81.1899" style="stroke:#B38D22;stroke-width:1.0;"/><text fill="#000000" font-family="sans-serif" font-size="14" font-style="italic" lengthAdjust="spacing" textLength="158.498" x="26" y="86.2578">onUnlock(Entity): void</text></g></a><polygon fill="none" points="141,93.011,135,111.011,147,111.011,141,93.011" style="stroke:#181818;stroke-width:1.0;"/><path d="M141,111.011 C141,122.2117 141,116.7111 141,128.9954 " fill="none" style="stroke:#181818;stroke-width:1.0;"/><text fill="#888888" font-family="sans-serif" font-size="10" lengthAdjust="spacing" textLength="3.5156" x="135.7422" y="265.0537">&#160;</text><text fill="#888888" font-family="sans-serif" font-size="10" lengthAdjust="spacing" textLength="185.2539" x="44.873" y="277.207">UMLDoclet 2.2.0, PlantUML 1.2024.6</text><!--SRC=[jP9FJyCm3CNl-nG6X3G4H5311Q5T61V-Yy5fus1IRuj8xP9uGsNikzDrXI900WxaakZzNYpdnG00Atd0KORWiP29Gin8aR7LAX54Kc3CAEPegKSv1bG9mC9KyR5B2IZBjO2X8v_6psfPR2obNEdMOuomUXZTCntixdLEgUYAX07Noaw7dmrQypHIDl69E4dsZRScbGmT6tMUuYfWX9zjfguD_NvzCcFD_DqTpAfM5ckp9kqhSQnRS2HU9c6ZuROKGdlZe2AXqLLEel02dFGkBswAdDxPMaQayPQzs8ThUepjOrQdHMcz5_64t3Y5bxR6CXMNLdo-p0llemQq-YMuVqkjZkpxl6Pl_Sp_yCoFbtv-yMzRF7pPtlx352odZrWfm51aiGtuzloiAzQN4vwOnEnimPL7rbA5zIc5w1O__0e0]--></g></svg>