<svg xmlns="http://www.w3.org/2000/svg" xmlns:xlink="http://www.w3.org/1999/xlink" contentStyleType="text/css" height="194px" preserveAspectRatio="none" style="width:326px;height:194px;background:#FFFFFF;" version="1.1" viewBox="0 0 326 194" width="326px" zoomAndPan="magnify"><defs/><g><!--class nz.ac.wgtn.swen225.lc.domain.tiles.MovementAffecterTile--><a href="MovementAffecterTile.html" target="_top" title="MovementAffecterTile.html" xlink:actuate="onRequest" xlink:href="MovementAffecterTile.html" xlink:show="new" xlink:title="MovementAffecterTile.html" xlink:type="simple"><g id="elem_nz.ac.wgtn.swen225.lc.domain.tiles.MovementAffecterTile"><rect codeLine="7" fill="#F1F1F1" height="81.1973" id="nz.ac.wgtn.swen225.lc.domain.tiles.MovementAffecterTile" rx="2.5" ry="2.5" style="stroke:#181818;stroke-width:0.5;" width="313.7109" x="6" y="87"/><ellipse cx="68.7544" cy="106.584" fill="#A9DCDF" rx="11" ry="11" style="stroke:#181818;stroke-width:1.0;"/><path d="M74.395,112.334 L72.4106,112.334 L71.1294,108.2402 L67.6606,108.2402 L66.3481,112.334 L64.3794,112.334 L68.3794,100.084 L70.395,100.084 L74.395,112.334 Z M70.5669,106.5215 L69.3794,102.8184 L68.2231,106.5215 L70.5669,106.5215 Z " fill="#000000"/><text fill="#000000" font-family="sans-serif" font-size="14" font-style="italic" lengthAdjust="spacing" textLength="152.7627" x="102.7241" y="106.0752">MovementAffecterTile</text><text fill="#000000" font-family="sans-serif" font-size="10" font-style="italic" lengthAdjust="spacing" textLength="179.7021" x="89.2544" y="119.0684">nz.ac.wgtn.swen225.lc.domain.tiles</text><line style="stroke:#181818;stroke-width:0.5;" x1="7" x2="318.7109" y1="126.168" y2="126.168"/><ellipse cx="17" cy="140.1753" fill="#84BE84" rx="3" ry="3" style="stroke:#038048;stroke-width:1.0;"/><text fill="#000000" font-family="sans-serif" font-size="14" lengthAdjust="spacing" textLength="200.6553" x="26" y="144.2432">MovementAffecterTile(Point)</text><ellipse cx="17" cy="157.1899" fill="#84BE84" rx="3" ry="3" style="stroke:#038048;stroke-width:1.0;"/><text fill="#000000" font-family="sans-serif" font-size="14" font-style="italic" lengthAdjust="spacing" textLength="287.7109" x="26" y="161.2578">affectMove(MoveableEntity, Point): Point</text></g></a><!--class nz.ac.wgtn.swen225.lc.domain.tiles.AbstractTile--><a href="AbstractTile.html" target="_top" title="AbstractTile.html" xlink:actuate="onRequest" xlink:href="AbstractTile.html" xlink:show="new" xlink:title="AbstractTile.html" xlink:type="simple"><g id="elem_nz.ac.wgtn.swen225.lc.domain.tiles.AbstractTile"><rect codeLine="12" fill="#F1F1F1" height="39.168" id="nz.ac.wgtn.swen225.lc.domain.tiles.AbstractTile" rx="2.5" ry="2.5" style="stroke:#181818;stroke-width:0.5;" width="211.7021" x="57" y="12"/><ellipse cx="72" cy="31.584" fill="#A9DCDF" rx="11" ry="11" style="stroke:#181818;stroke-width:1.0;"/><path d="M77.6406,37.334 L75.6563,37.334 L74.375,33.2402 L70.9063,33.2402 L69.5938,37.334 L67.625,37.334 L71.625,25.084 L73.6406,25.084 L77.6406,37.334 Z M73.8125,31.5215 L72.625,27.8184 L71.4688,31.5215 L73.8125,31.5215 Z " fill="#000000"/><text fill="#000000" font-family="sans-serif" font-size="14" font-style="italic" lengthAdjust="spacing" textLength="82.9336" x="134.3843" y="31.0752">AbstractTile</text><text fill="#000000" font-family="sans-serif" font-size="10" font-style="italic" lengthAdjust="spacing" textLength="179.7021" x="86" y="44.0684">nz.ac.wgtn.swen225.lc.domain.tiles</text></g></a><polygon fill="none" points="163,51.0714,157,69.0714,169,69.0714,163,51.0714" style="stroke:#181818;stroke-width:1.0;"/><path d="M163,69.0714 C163,79.3443 163,74.5197 163,86.9761 " fill="none" style="stroke:#181818;stroke-width:1.0;"/><text fill="#888888" font-family="sans-serif" font-size="10" lengthAdjust="spacing" textLength="3.5156" x="157.7422" y="172.0537">&#160;</text><text fill="#888888" font-family="sans-serif" font-size="10" lengthAdjust="spacing" textLength="185.2539" x="66.873" y="184.207">UMLDoclet 2.2.0, PlantUML 1.2024.6</text><!--SRC=[jL9DQm8n4BtxAwP2GR46kxGN4K5eRnKARK_gOOop6aWcIp9LrFhVcrstHOeWBJI737dlpKTU0W1mLGHSEWIBM_yk41q9CZOQYO980eoEOe6QNgZ0WE83i6Ug-9LP490hP0kv8Rk8Fz5KREKJNE4uZn9G2sYBCK9p4CsE-hTtmx5VaoEMKPwJ5WglnjAKQxetv9r2hJPBOHKtn5bshwnM2-_Gi9AaZKt029TbwbmZc4pEmMebpivciAz6BrVddAprx0rB-rkq_xha0JfOwSgiLhdXtD8ZYv7j3Hop-iTO9HykU3IgYN_pvhH1ykJqM7jndF2tfGOVtUvVtwPgg1D80NBlop3bj_7JWzSsVSrCPQgNpBJ8ab2uNbE8ndEh_Ga0]--></g></svg>