<svg xmlns="http://www.w3.org/2000/svg" xmlns:xlink="http://www.w3.org/1999/xlink" contentStyleType="text/css" height="406px" preserveAspectRatio="none" style="width:373px;height:406px;background:#FFFFFF;" version="1.1" viewBox="0 0 373 406" width="373px" zoomAndPan="magnify"><defs/><g><!--class nz.ac.wgtn.swen225.lc.domain.tiles.Wall--><a href="Wall.html" target="_top" title="Wall.html" xlink:actuate="onRequest" xlink:href="Wall.html" xlink:show="new" xlink:title="Wall.html" xlink:type="simple"><g id="elem_nz.ac.wgtn.swen225.lc.domain.tiles.Wall"><rect codeLine="7" fill="#F1F1F1" height="183.2852" id="nz.ac.wgtn.swen225.lc.domain.tiles.Wall" rx="2.5" ry="2.5" style="stroke:#181818;stroke-width:0.5;" width="261.04" x="10" y="197"/><ellipse cx="47.1977" cy="216.584" fill="#ADD1B2" rx="11" ry="11" style="stroke:#181818;stroke-width:1.0;"/><path d="M51.682,222.1777 Q50.057,223.3027 48.1508,223.3027 Q45.7602,223.3027 44.4945,221.6621 Q43.2445,220.0215 43.2445,216.959 Q43.2445,214.0371 44.4477,212.334 Q45.6664,210.6152 48.1508,210.6152 Q49.0414,210.6152 49.9008,210.8496 Q50.7758,211.0684 51.4945,211.584 L50.8539,213.1152 Q49.4945,212.3496 48.1508,212.3496 Q46.682,212.3496 45.9477,213.4277 Q45.2289,214.5059 45.2289,216.959 Q45.2289,221.584 48.1508,221.584 Q49.432,221.584 51.0727,220.6309 L51.682,222.1777 Z " fill="#000000"/><text fill="#000000" font-family="sans-serif" font-size="14" lengthAdjust="spacing" textLength="29.9346" x="141.0191" y="216.0752">Wall</text><text fill="#000000" font-family="sans-serif" font-size="10" lengthAdjust="spacing" textLength="179.7119" x="66.1305" y="229.0684">nz.ac.wgtn.swen225.lc.domain.tiles</text><line style="stroke:#181818;stroke-width:0.5;" x1="11" x2="270.04" y1="236.168" y2="236.168"/><ellipse cx="21" cy="250.1753" fill="#84BE84" rx="3" ry="3" style="stroke:#038048;stroke-width:1.0;"/><text fill="#000000" font-family="sans-serif" font-size="14" lengthAdjust="spacing" textLength="77.8066" x="30" y="254.2432">Wall(Point)</text><ellipse cx="21" cy="267.1899" fill="#84BE84" rx="3" ry="3" style="stroke:#038048;stroke-width:1.0;"/><text fill="#000000" font-family="sans-serif" font-size="14" lengthAdjust="spacing" textLength="131.4277" x="30" y="271.2578">leave(Entity): void</text><ellipse cx="21" cy="284.2046" fill="#84BE84" rx="3" ry="3" style="stroke:#038048;stroke-width:1.0;"/><text fill="#000000" font-family="sans-serif" font-size="14" lengthAdjust="spacing" textLength="182.1367" x="30" y="288.2725">canEnter(Entity): boolean</text><ellipse cx="21" cy="301.2192" fill="#84BE84" rx="3" ry="3" style="stroke:#038048;stroke-width:1.0;"/><text fill="#000000" font-family="sans-serif" font-size="14" lengthAdjust="spacing" textLength="131.2432" x="30" y="305.2871">enter(Entity): void</text><ellipse cx="21" cy="318.2339" fill="#84BE84" rx="3" ry="3" style="stroke:#038048;stroke-width:1.0;"/><text fill="#000000" font-family="sans-serif" font-size="14" lengthAdjust="spacing" textLength="117.3115" x="30" y="322.3018">put(Entity): void</text><ellipse cx="21" cy="335.2485" fill="#84BE84" rx="3" ry="3" style="stroke:#038048;stroke-width:1.0;"/><text fill="#000000" font-family="sans-serif" font-size="14" lengthAdjust="spacing" textLength="235.04" x="30" y="339.3164">getOccupant(): Optional&lt;Entity&gt;</text><ellipse cx="21" cy="352.2632" fill="#84BE84" rx="3" ry="3" style="stroke:#038048;stroke-width:1.0;"/><text fill="#000000" font-family="sans-serif" font-size="14" lengthAdjust="spacing" text-decoration="underline" textLength="207.5049" x="30" y="356.3311">fromJSON(JSONObject): Wall</text><ellipse cx="21" cy="369.2778" fill="#84BE84" rx="3" ry="3" style="stroke:#038048;stroke-width:1.0;"/><text fill="#000000" font-family="sans-serif" font-size="14" lengthAdjust="spacing" textLength="113.9072" x="30" y="373.3457">location(): Point</text></g></a><!--class java.lang.Record--><g id="elem_java.lang.Record"><rect codeLine="18" fill="#F1F1F1" height="39.168" id="java.lang.Record" rx="2.5" ry="2.5" style="stroke:#181818;stroke-width:0.5;" width="80.5625" x="6" y="67"/><ellipse cx="21" cy="86.584" fill="#A9DCDF" rx="11" ry="11" style="stroke:#181818;stroke-width:1.0;"/><path d="M26.6406,92.334 L24.6563,92.334 L23.375,88.2402 L19.9063,88.2402 L18.5938,92.334 L16.625,92.334 L20.625,80.084 L22.6406,80.084 L26.6406,92.334 Z M22.8125,86.5215 L21.625,82.8184 L20.4688,86.5215 L22.8125,86.5215 Z " fill="#000000"/><text fill="#000000" font-family="sans-serif" font-size="14" font-style="italic" lengthAdjust="spacing" textLength="48.5625" x="35" y="86.0752">Record</text><text fill="#000000" font-family="sans-serif" font-size="10" font-style="italic" lengthAdjust="spacing" textLength="46.2939" x="36.1343" y="99.0684">java.lang</text></g><!--class nz.ac.wgtn.swen225.lc.domain.tiles.Tile--><a href="Tile.html" target="_top" title="Tile.html" xlink:actuate="onRequest" xlink:href="Tile.html" xlink:show="new" xlink:title="Tile.html" xlink:type="simple"><g id="elem_nz.ac.wgtn.swen225.lc.domain.tiles.Tile"><rect codeLine="19" fill="#F1F1F1" height="149.2559" id="nz.ac.wgtn.swen225.lc.domain.tiles.Tile" rx="2.5" ry="2.5" style="stroke:#181818;stroke-width:0.5;" width="261.0059" x="105" y="12"/><ellipse cx="142.1867" cy="31.584" fill="#B4A7E5" rx="11" ry="11" style="stroke:#181818;stroke-width:1.0;"/><path d="M145.421,38.084 L139.5617,38.084 L139.5617,36.3652 L141.5929,36.3652 L141.5929,27.5527 L139.5617,27.5527 L139.5617,25.834 L145.421,25.834 L145.421,27.5527 L143.4835,27.5527 L143.4835,36.3652 L145.421,36.3652 L145.421,38.084 Z " fill="#000000"/><text fill="#000000" font-family="sans-serif" font-size="14" font-style="italic" lengthAdjust="spacing" textLength="24.6504" x="238.6429" y="31.0752">Tile</text><text fill="#000000" font-family="sans-serif" font-size="10" font-style="italic" lengthAdjust="spacing" textLength="179.7021" x="161.117" y="44.0684">nz.ac.wgtn.swen225.lc.domain.tiles</text><line style="stroke:#181818;stroke-width:0.5;" x1="106" x2="365.0059" y1="51.168" y2="51.168"/><ellipse cx="116" cy="65.1753" fill="#84BE84" rx="3" ry="3" style="stroke:#038048;stroke-width:1.0;"/><text fill="#000000" font-family="sans-serif" font-size="14" font-style="italic" lengthAdjust="spacing" textLength="113.9072" x="125" y="69.2432">location(): Point</text><ellipse cx="116" cy="82.1899" fill="#84BE84" rx="3" ry="3" style="stroke:#038048;stroke-width:1.0;"/><text fill="#000000" font-family="sans-serif" font-size="14" font-style="italic" lengthAdjust="spacing" textLength="182.123" x="125" y="86.2578">canEnter(Entity): boolean</text><ellipse cx="116" cy="99.2046" fill="#84BE84" rx="3" ry="3" style="stroke:#038048;stroke-width:1.0;"/><text fill="#000000" font-family="sans-serif" font-size="14" font-style="italic" lengthAdjust="spacing" textLength="131.2158" x="125" y="103.2725">enter(Entity): void</text><ellipse cx="116" cy="116.2192" fill="#84BE84" rx="3" ry="3" style="stroke:#038048;stroke-width:1.0;"/><text fill="#000000" font-family="sans-serif" font-size="14" font-style="italic" lengthAdjust="spacing" textLength="117.2842" x="125" y="120.2871">put(Entity): void</text><ellipse cx="116" cy="133.2339" fill="#84BE84" rx="3" ry="3" style="stroke:#038048;stroke-width:1.0;"/><text fill="#000000" font-family="sans-serif" font-size="14" font-style="italic" lengthAdjust="spacing" textLength="235.0059" x="125" y="137.3018">getOccupant(): Optional&lt;Entity&gt;</text><ellipse cx="116" cy="150.2485" fill="#84BE84" rx="3" ry="3" style="stroke:#038048;stroke-width:1.0;"/><text fill="#000000" font-family="sans-serif" font-size="14" font-style="italic" lengthAdjust="spacing" textLength="131.3867" x="125" y="154.3164">leave(Entity): void</text></g></a><polygon fill="none" points="55.3433,106.3155,57.5697,125.1581,68.4299,120.0538,55.3433,106.3155" style="stroke:#181818;stroke-width:1.0;"/><path d="M62.9998,122.6059 C72.8717,143.6099 81.9137,162.8483 97.9219,196.9084 " fill="none" style="stroke:#181818;stroke-width:1.0;"/><polygon fill="none" points="200.5302,161.1206,187.3875,174.8052,198.2269,179.9539,200.5302,161.1206" style="stroke:#181818;stroke-width:1.0;"/><path d="M192.8072,177.3796 C187.305,188.9631 189.2843,184.7962 183.6242,196.7123 " fill="none" style="stroke:#181818;stroke-width:1.0;stroke-dasharray:7.0,7.0;"/><text fill="#888888" font-family="sans-serif" font-size="10" lengthAdjust="spacing" textLength="3.5156" x="180.7422" y="384.0537">&#160;</text><text fill="#888888" font-family="sans-serif" font-size="10" lengthAdjust="spacing" textLength="185.2539" x="89.873" y="396.207">UMLDoclet 2.2.0, PlantUML 1.2024.6</text><!--SRC=[jPHFJm8n4CNlVehHn0IYDaZqOWWdlHWLufzuK0z3Tu2QxdIp7J28V7VReh1YK3ouXsqwx_Mbqrzt0G2sYn87EOB5YHi9-9m46RUsWWIU11XpyWLgkg42InHN0Zkcf0zDHa1v8HFe6xAPNws6iA4BvLJN5hs7dPOthtHoUDI-HsiV-MFQQFEhGgrU1iBAln0tcyVAQfMv70qhCPRy3g27tsqg1iF3GnpKK7Bxz0JJj8FuxCLohUiCItrPj8HZgfsn69dKJs3iJBOKDN9Gg5pgFUV22bvQwAl-TNqnadNIWAIZzQX0bbeGEuKOnsXRStjxOPnwGJ5w1dlzqkNdDvshMdnrUi-a9IoCJLMwSHfZK8nCdIPfDiU0FIybQld6uvgqAxCAaMSSexB8WtJmYvcQ6rEOYNttm-sevDm62F_2DGO7hd7updNwsTTiNV-hhj-nLjq_4QxwriEkkZRcNkrgpHtzuBhA1rfl1mURVYufOLC4hJUb_XIiq-51txauFFBTvSMfqpRyNPgggHhxq0txbb25tJ6LFf5x1m00]--></g></svg>