<svg xmlns="http://www.w3.org/2000/svg" xmlns:xlink="http://www.w3.org/1999/xlink" contentStyleType="text/css" height="491px" preserveAspectRatio="none" style="width:511px;height:491px;background:#FFFFFF;" version="1.1" viewBox="0 0 511 491" width="511px" zoomAndPan="magnify"><defs/><g><!--class nz.ac.wgtn.swen225.lc.domain.entities.Player--><a href="Player.html" target="_top" title="Player.html" xlink:actuate="onRequest" xlink:href="Player.html" xlink:show="new" xlink:title="Player.html" xlink:type="simple"><g id="elem_nz.ac.wgtn.swen225.lc.domain.entities.Player"><rect codeLine="7" fill="#F1F1F1" height="336.417" id="nz.ac.wgtn.swen225.lc.domain.entities.Player" rx="2.5" ry="2.5" style="stroke:#181818;stroke-width:0.5;" width="314.1143" x="91" y="129"/><ellipse cx="145.8384" cy="148.584" fill="#ADD1B2" rx="11" ry="11" style="stroke:#181818;stroke-width:1.0;"/><path d="M150.3228,154.1777 Q148.6978,155.3027 146.7915,155.3027 Q144.4009,155.3027 143.1353,153.6621 Q141.8853,152.0215 141.8853,148.959 Q141.8853,146.0371 143.0884,144.334 Q144.3071,142.6152 146.7915,142.6152 Q147.6821,142.6152 148.5415,142.8496 Q149.4165,143.0684 150.1353,143.584 L149.4946,145.1152 Q148.1353,144.3496 146.7915,144.3496 Q145.3228,144.3496 144.5884,145.4277 Q143.8696,146.5059 143.8696,148.959 Q143.8696,153.584 146.7915,153.584 Q148.0728,153.584 149.7134,152.6309 L150.3228,154.1777 Z " fill="#000000"/><text fill="#000000" font-family="sans-serif" font-size="14" lengthAdjust="spacing" textLength="43.292" x="242.6611" y="148.0752">Player</text><text fill="#000000" font-family="sans-serif" font-size="10" lengthAdjust="spacing" textLength="195.9375" x="166.3384" y="161.0684">nz.ac.wgtn.swen225.lc.domain.entities</text><line style="stroke:#181818;stroke-width:0.5;" x1="92" x2="404.1143" y1="168.168" y2="168.168"/><ellipse cx="102" cy="182.1753" fill="#84BE84" rx="3" ry="3" style="stroke:#038048;stroke-width:1.0;"/><text fill="#000000" font-family="sans-serif" font-size="14" lengthAdjust="spacing" textLength="131.0996" x="111" y="186.2432">Player(Point, long)</text><ellipse cx="102" cy="199.1899" fill="#84BE84" rx="3" ry="3" style="stroke:#038048;stroke-width:1.0;"/><text fill="#000000" font-family="sans-serif" font-size="14" lengthAdjust="spacing" textLength="270.4023" x="111" y="203.2578">Player(Point, long, Consumer&lt;Point&gt;)</text><ellipse cx="102" cy="216.2046" fill="#84BE84" rx="3" ry="3" style="stroke:#038048;stroke-width:1.0;"/><text fill="#000000" font-family="sans-serif" font-size="14" lengthAdjust="spacing" textLength="108.1992" x="111" y="220.2725">tick(long): void</text><ellipse cx="102" cy="233.2192" fill="#84BE84" rx="3" ry="3" style="stroke:#038048;stroke-width:1.0;"/><text fill="#000000" font-family="sans-serif" font-size="14" lengthAdjust="spacing" textLength="186.7305" x="111" y="237.2871">canTouch(Entity): boolean</text><ellipse cx="102" cy="250.2339" fill="#84BE84" rx="3" ry="3" style="stroke:#038048;stroke-width:1.0;"/><text fill="#000000" font-family="sans-serif" font-size="14" lengthAdjust="spacing" textLength="133.2393" x="111" y="254.3018">touch(Entity): void</text><ellipse cx="102" cy="267.2485" fill="#84BE84" rx="3" ry="3" style="stroke:#038048;stroke-width:1.0;"/><text fill="#000000" font-family="sans-serif" font-size="14" lengthAdjust="spacing" textLength="226.9121" x="111" y="271.3164">queueAction(PlayerAction): void</text><ellipse cx="102" cy="284.2632" fill="#84BE84" rx="3" ry="3" style="stroke:#038048;stroke-width:1.0;"/><text fill="#000000" font-family="sans-serif" font-size="14" lengthAdjust="spacing" textLength="133.8203" x="111" y="288.3311">pickUp(Item): void</text><ellipse cx="102" cy="301.2778" fill="#84BE84" rx="3" ry="3" style="stroke:#038048;stroke-width:1.0;"/><text fill="#000000" font-family="sans-serif" font-size="14" lengthAdjust="spacing" textLength="155.709" x="111" y="305.3457">clearInventory(): void</text><ellipse cx="102" cy="318.2925" fill="#84BE84" rx="3" ry="3" style="stroke:#038048;stroke-width:1.0;"/><text fill="#000000" font-family="sans-serif" font-size="14" lengthAdjust="spacing" textLength="288.1143" x="111" y="322.3604">lose(Predicate&lt;Item&gt;): Optional&lt;Item&gt;</text><ellipse cx="102" cy="335.3071" fill="#84BE84" rx="3" ry="3" style="stroke:#038048;stroke-width:1.0;"/><text fill="#000000" font-family="sans-serif" font-size="14" lengthAdjust="spacing" textLength="195.8086" x="111" y="339.375">getInventory(): List&lt;Item&gt;</text><ellipse cx="102" cy="352.3218" fill="#84BE84" rx="3" ry="3" style="stroke:#038048;stroke-width:1.0;"/><text fill="#000000" font-family="sans-serif" font-size="14" lengthAdjust="spacing" textLength="77.499" x="111" y="356.3896">win(): void</text><ellipse cx="102" cy="369.3364" fill="#84BE84" rx="3" ry="3" style="stroke:#038048;stroke-width:1.0;"/><text fill="#000000" font-family="sans-serif" font-size="14" lengthAdjust="spacing" textLength="134.9209" x="111" y="373.4043">hasWon(): boolean</text><ellipse cx="102" cy="386.3511" fill="#84BE84" rx="3" ry="3" style="stroke:#038048;stroke-width:1.0;"/><text fill="#000000" font-family="sans-serif" font-size="14" lengthAdjust="spacing" textLength="74.2451" x="111" y="390.4189">die(): void</text><ellipse cx="102" cy="403.3657" fill="#84BE84" rx="3" ry="3" style="stroke:#038048;stroke-width:1.0;"/><text fill="#000000" font-family="sans-serif" font-size="14" lengthAdjust="spacing" textLength="126.5537" x="111" y="407.4336">isDead(): boolean</text><ellipse cx="102" cy="420.3804" fill="#84BE84" rx="3" ry="3" style="stroke:#038048;stroke-width:1.0;"/><text fill="#000000" font-family="sans-serif" font-size="14" lengthAdjust="spacing" text-decoration="underline" textLength="220.8623" x="111" y="424.4482">fromJSON(JSONObject): Player</text><ellipse cx="102" cy="437.395" fill="#84BE84" rx="3" ry="3" style="stroke:#038048;stroke-width:1.0;"/><text fill="#000000" font-family="sans-serif" font-size="14" lengthAdjust="spacing" textLength="140.4238" x="111" y="441.4629">toJson(): JSONType</text><ellipse cx="102" cy="454.4097" fill="#84BE84" rx="3" ry="3" style="stroke:#038048;stroke-width:1.0;"/><text fill="#000000" font-family="sans-serif" font-size="14" lengthAdjust="spacing" textLength="202.7129" x="111" y="458.4775">fromJson(JSONType): Player</text></g></a><!--class nz.ac.wgtn.swen225.lc.domain.entities.MoveableEntity--><a href="MoveableEntity.html" target="_top" title="MoveableEntity.html" xlink:actuate="onRequest" xlink:href="MoveableEntity.html" xlink:show="new" xlink:title="MoveableEntity.html" xlink:type="simple"><g id="elem_nz.ac.wgtn.swen225.lc.domain.entities.MoveableEntity"><rect codeLine="27" fill="#F1F1F1" height="39.168" id="nz.ac.wgtn.swen225.lc.domain.entities.MoveableEntity" rx="2.5" ry="2.5" style="stroke:#181818;stroke-width:0.5;" width="227.9277" x="6" y="33"/><ellipse cx="21" cy="52.584" fill="#A9DCDF" rx="11" ry="11" style="stroke:#181818;stroke-width:1.0;"/><path d="M26.6406,58.334 L24.6563,58.334 L23.375,54.2402 L19.9063,54.2402 L18.5938,58.334 L16.625,58.334 L20.625,46.084 L22.6406,46.084 L26.6406,58.334 Z M22.8125,52.5215 L21.625,48.8184 L20.4688,52.5215 L22.8125,52.5215 Z " fill="#000000"/><text fill="#000000" font-family="sans-serif" font-size="14" font-style="italic" lengthAdjust="spacing" textLength="107.0781" x="79.4248" y="52.0752">MoveableEntity</text><text fill="#000000" font-family="sans-serif" font-size="10" font-style="italic" lengthAdjust="spacing" textLength="195.9277" x="35" y="65.0684">nz.ac.wgtn.swen225.lc.domain.entities</text></g></a><!--class nz.ac.wgtn.swen225.lc.persistency.JSONSerializable--><a href="../../persistency/JSONSerializable.html" target="_top" title="../../persistency/JSONSerializable.html" xlink:actuate="onRequest" xlink:href="../../persistency/JSONSerializable.html" xlink:show="new" xlink:title="../../persistency/JSONSerializable.html" xlink:type="simple"><g id="elem_nz.ac.wgtn.swen225.lc.persistency.JSONSerializable"><rect codeLine="28" fill="#F1F1F1" height="81.1973" id="nz.ac.wgtn.swen225.lc.persistency.JSONSerializable" rx="2.5" ry="2.5" style="stroke:#181818;stroke-width:0.5;" width="248.418" x="252" y="12"/><ellipse cx="267" cy="31.584" fill="#B4A7E5" rx="11" ry="11" style="stroke:#181818;stroke-width:1.0;"/><path d="M270.2344,38.084 L264.375,38.084 L264.375,36.3652 L266.4063,36.3652 L266.4063,27.5527 L264.375,27.5527 L264.375,25.834 L270.2344,25.834 L270.2344,27.5527 L268.2969,27.5527 L268.2969,36.3652 L270.2344,36.3652 L270.2344,38.084 Z " fill="#000000"/><text fill="#000000" font-family="sans-serif" font-size="14" font-style="italic" lengthAdjust="spacing" textLength="117.9131" x="309.7046" y="31.0752">JSONSerializable</text><text fill="#000000" font-family="sans-serif" font-size="10" font-style="italic" lengthAdjust="spacing" textLength="175.3223" x="281" y="44.0684">nz.ac.wgtn.swen225.lc.persistency</text><rect fill="#FFFFFF" height="16.584" style="stroke:#181818;stroke-width:1.0;stroke-dasharray:2.0,2.0;" width="39.0957" x="464.3223" y="9"/><text fill="#000000" font-family="sans-serif" font-size="12" font-style="italic" lengthAdjust="spacing" textLength="37.0957" x="465.3223" y="22.0645">Player</text><line style="stroke:#181818;stroke-width:0.5;" x1="253" x2="499.418" y1="51.168" y2="51.168"/><ellipse cx="263" cy="65.1753" fill="#84BE84" rx="3" ry="3" style="stroke:#038048;stroke-width:1.0;"/><text fill="#000000" font-family="sans-serif" font-size="14" font-style="italic" lengthAdjust="spacing" textLength="140.4102" x="272" y="69.2432">toJson(): JSONType</text><ellipse cx="263" cy="82.1899" fill="#84BE84" rx="3" ry="3" style="stroke:#038048;stroke-width:1.0;"/><text fill="#000000" font-family="sans-serif" font-size="14" font-style="italic" lengthAdjust="spacing" textLength="202.6924" x="272" y="86.2578">fromJson(JSONType): Player</text></g></a><polygon fill="none" points="129.8314,72.1259,132.9276,90.8452,143.54,85.2437,129.8314,72.1259" style="stroke:#181818;stroke-width:1.0;"/><path d="M138.2338,88.0445 C145.4928,101.7969 147.7645,106.1008 159.7737,128.8526 " fill="none" style="stroke:#181818;stroke-width:1.0;"/><polygon fill="none" points="355.1497,93.0015,341.4412,106.1193,352.0535,111.7209,355.1497,93.0015" style="stroke:#181818;stroke-width:1.0;"/><path d="M346.7473,108.9201 C341.1509,119.5226 343.133,115.7676 336.2762,128.7581 " fill="none" style="stroke:#181818;stroke-width:1.0;stroke-dasharray:7.0,7.0;"/><text fill="#888888" font-family="sans-serif" font-size="10" lengthAdjust="spacing" textLength="3.5156" x="247.7422" y="469.0537">&#160;</text><text fill="#888888" font-family="sans-serif" font-size="10" lengthAdjust="spacing" textLength="185.2539" x="156.873" y="481.207">UMLDoclet 2.2.0, PlantUML 1.2024.6</text><!--SRC=[jLHTRnen47pFhzX6gdHLY9EYvYL2I5NJXqH9GI9H7v8yBBu5tFhigxs03if_htsNY3ikeacb8iJ7pdXdc5q30F0kTpZD43GMTixWCs8qU70G8F34O30ZdwEa4UNeaAq3OmsL-4ob19JbNC14aKxzRZKqczbGBkjIe_TmsFDgHUSVF_M7GPBSWtagdFRDIg0KooaRuPTakjqpeQL8RORA23AiM94_1FJmAgQe1E3-lleWPfpfnqTObsxYuwW2ag5LXZkWhPb-s0Tsu8irVfwHwvNLVetDIlvCoWxdiB0gtI8IpQsTordoDHeh0ZwsLXEQsk4ctZp_Qqvp-YnPMPDKdgelBM8UBDpboILJrZOH1DsbMOHmh2kI5gwjfsJeA5KIcNgnHp-G1dbKGbqLjlGfSQFPjVAyoragqzQPeVzkotehX5HHcw_y1M7w4d_j6KFe6pYQE9jTZGRValWo6FyWoO5VHLNF-CfNof5sM-IqnSeE4Ns6ckStrGBZsBD3oQrDlh4Bmh6cQe3_SQERGc6pcuMd3I_DXlKaDmdtjkOp_heHEOLQhUAflphDoVamMJAosEEonXAx4hqgndxmAiH9UDR89xlazWrTFsU-sJl0Ekrri_odl7k_Zu_VzD-pHsfVQ458YBSBIOepXucryUt1tDrSNzXmyHcweYjEEp46mw4AxnTHFORv1m00]--></g></svg>