<svg xmlns="http://www.w3.org/2000/svg" xmlns:xlink="http://www.w3.org/1999/xlink" contentStyleType="text/css" height="221px" preserveAspectRatio="none" style="width:409px;height:221px;background:#FFFFFF;" version="1.1" viewBox="0 0 409 221" width="409px" zoomAndPan="magnify"><defs/><g><!--class nz.ac.wgtn.swen225.lc.app.keybinders.KeyStrokes--><a href="KeyStrokes.html" target="_top" title="KeyStrokes.html" xlink:actuate="onRequest" xlink:href="KeyStrokes.html" xlink:show="new" xlink:title="KeyStrokes.html" xlink:type="simple"><g id="elem_nz.ac.wgtn.swen225.lc.app.keybinders.KeyStrokes"><rect codeLine="7" fill="#F1F1F1" height="183.2852" id="nz.ac.wgtn.swen225.lc.app.keybinders.KeyStrokes" rx="2.5" ry="2.5" style="stroke:#181818;stroke-width:0.5;" width="396.4053" x="6" y="12"/><ellipse cx="102.333" cy="31.584" fill="#ADD1B2" rx="11" ry="11" style="stroke:#181818;stroke-width:1.0;"/><path d="M106.8174,37.1777 Q105.1924,38.3027 103.2861,38.3027 Q100.8955,38.3027 99.6299,36.6621 Q98.3799,35.0215 98.3799,31.959 Q98.3799,29.0371 99.583,27.334 Q100.8018,25.6152 103.2861,25.6152 Q104.1768,25.6152 105.0361,25.8496 Q105.9111,26.0684 106.6299,26.584 L105.9893,28.1152 Q104.6299,27.3496 103.2861,27.3496 Q101.8174,27.3496 101.083,28.4277 Q100.3643,29.5059 100.3643,31.959 Q100.3643,36.584 103.2861,36.584 Q104.5674,36.584 106.208,35.6309 L106.8174,37.1777 Z " fill="#000000"/><text fill="#000000" font-family="sans-serif" font-size="14" lengthAdjust="spacing" textLength="79.8027" x="180.5513" y="31.0752">KeyStrokes</text><text fill="#000000" font-family="sans-serif" font-size="10" lengthAdjust="spacing" textLength="195.2393" x="122.833" y="44.0684">nz.ac.wgtn.swen225.lc.app.keybinders</text><line style="stroke:#181818;stroke-width:0.5;" x1="7" x2="401.4053" y1="51.168" y2="51.168"/><ellipse cx="17" cy="65.1753" fill="#84BE84" rx="3" ry="3" style="stroke:#038048;stroke-width:1.0;"/><text fill="#000000" font-family="sans-serif" font-size="14" lengthAdjust="spacing" textLength="343.1846" x="26" y="69.2432">assignKeyToPlayerAction(int, PlayerAction): void</text><ellipse cx="17" cy="82.1899" fill="#84BE84" rx="3" ry="3" style="stroke:#038048;stroke-width:1.0;"/><text fill="#000000" font-family="sans-serif" font-size="14" lengthAdjust="spacing" textLength="278.6465" x="26" y="86.2578">assignKeyToAction(int, Runnable): void</text><ellipse cx="17" cy="99.2046" fill="#84BE84" rx="3" ry="3" style="stroke:#038048;stroke-width:1.0;"/><text fill="#000000" font-family="sans-serif" font-size="14" lengthAdjust="spacing" textLength="228.6074" x="26" y="103.2725">assignIDToKey(int, String): void</text><ellipse cx="17" cy="116.2192" fill="#84BE84" rx="3" ry="3" style="stroke:#038048;stroke-width:1.0;"/><text fill="#000000" font-family="sans-serif" font-size="14" lengthAdjust="spacing" textLength="236.9746" x="26" y="120.2871">strokeGoesToAction(int): boolean</text><ellipse cx="17" cy="133.2339" fill="#84BE84" rx="3" ry="3" style="stroke:#038048;stroke-width:1.0;"/><text fill="#000000" font-family="sans-serif" font-size="14" lengthAdjust="spacing" textLength="238.5332" x="26" y="137.3018">getPlayerAction(int): PlayerAction</text><ellipse cx="17" cy="150.2485" fill="#84BE84" rx="3" ry="3" style="stroke:#038048;stroke-width:1.0;"/><text fill="#000000" font-family="sans-serif" font-size="14" lengthAdjust="spacing" textLength="171.1855" x="26" y="154.3164">performAction(int): void</text><ellipse cx="17" cy="167.2632" fill="#84BE84" rx="3" ry="3" style="stroke:#038048;stroke-width:1.0;"/><text fill="#000000" font-family="sans-serif" font-size="14" lengthAdjust="spacing" textLength="370.4053" x="26" y="171.3311">strokesToPlayerAction(): Map&lt;String, PlayerAction&gt;</text><ellipse cx="17" cy="184.2778" fill="#84BE84" rx="3" ry="3" style="stroke:#038048;stroke-width:1.0;"/><text fill="#000000" font-family="sans-serif" font-size="14" lengthAdjust="spacing" textLength="322.0068" x="26" y="188.3457">strokesToUIAction(): Map&lt;String, Runnable&gt;</text></g></a><text fill="#888888" font-family="sans-serif" font-size="10" lengthAdjust="spacing" textLength="3.5156" x="198.7422" y="199.0537">&#160;</text><text fill="#888888" font-family="sans-serif" font-size="10" lengthAdjust="spacing" textLength="185.2539" x="107.873" y="211.207">UMLDoclet 2.2.0, PlantUML 1.2024.6</text><!--SRC=[ZP91Qm8n48Nl_HLJeT3I4kpINaI4Wb2a5KhLateOTySrk3iJagYifV-zSRTbLskXkOIyV6_cCGa0mAMncEO86HQoyU1oyiXuSH6km947nfoSmPX6PD2Y5miiJENzIYS4b1jVm59JbhXJDHHRIP1BFSxGEMXrdTvJv_wXzqB5o5jPavlnjzZkyLvXh7QfP-Lsn57qgB9OeJ5gJSL2SqBMjG0T_0TKTGkOJkk3Mlaycy_XeynrMBSXcauv86Dv2wCW-nHxBNojsTz1Kxdfm5PqSjRPzBnlc76HqH_ye3-MuAdO44jp-ejqPTfd8TSi7R25I4R8DPcIFqqTiAPKiuRiKcn-H9xhwquc4R0XccwLzNWclJFUoU2yxsSkbUUp-Xd4dYmiHGxRZ2V3rxx4MVXzaOfKksp6FgXmjGtFMbRz0W00]--></g></svg>