<svg xmlns="http://www.w3.org/2000/svg" xmlns:xlink="http://www.w3.org/1999/xlink" contentStyleType="text/css" height="102px" preserveAspectRatio="none" style="width:206px;height:102px;background:#FFFFFF;" version="1.1" viewBox="0 0 206 102" width="206px" zoomAndPan="magnify"><defs/><g><!--class nz.ac.wgtn.swen225.lc.renderer.Renderer--><a href="Renderer.html" target="_top" title="Renderer.html" xlink:actuate="onRequest" xlink:href="Renderer.html" xlink:show="new" xlink:title="Renderer.html" xlink:type="simple"><g id="elem_nz.ac.wgtn.swen225.lc.renderer.Renderer"><rect codeLine="7" fill="#F1F1F1" height="64.1826" id="nz.ac.wgtn.swen225.lc.renderer.Renderer" rx="2.5" ry="2.5" style="stroke:#181818;stroke-width:0.5;" width="193.6064" x="6" y="12"/><ellipse cx="21" cy="31.584" fill="#ADD1B2" rx="11" ry="11" style="stroke:#181818;stroke-width:1.0;"/><path d="M25.4844,37.1777 Q23.8594,38.3027 21.9531,38.3027 Q19.5625,38.3027 18.2969,36.6621 Q17.0469,35.0215 17.0469,31.959 Q17.0469,29.0371 18.25,27.334 Q19.4688,25.6152 21.9531,25.6152 Q22.8438,25.6152 23.7031,25.8496 Q24.5781,26.0684 25.2969,26.584 L24.6563,28.1152 Q23.2969,27.3496 21.9531,27.3496 Q20.4844,27.3496 19.75,28.4277 Q19.0313,29.5059 19.0313,31.959 Q19.0313,36.584 21.9531,36.584 Q23.2344,36.584 24.875,35.6309 L25.4844,37.1777 Z " fill="#000000"/><text fill="#000000" font-family="sans-serif" font-size="14" lengthAdjust="spacing" textLength="64.2852" x="83.6606" y="31.0752">Renderer</text><text fill="#000000" font-family="sans-serif" font-size="10" lengthAdjust="spacing" textLength="161.6064" x="35" y="44.0684">nz.ac.wgtn.swen225.lc.renderer</text><line style="stroke:#181818;stroke-width:0.5;" x1="7" x2="198.6064" y1="51.168" y2="51.168"/><ellipse cx="17" cy="65.1753" fill="#84BE84" rx="3" ry="3" style="stroke:#038048;stroke-width:1.0;"/><text fill="#000000" font-family="sans-serif" font-size="14" lengthAdjust="spacing" text-decoration="underline" textLength="160.8018" x="26" y="69.2432">render(Graphics): void</text></g></a><text fill="#888888" font-family="sans-serif" font-size="10" lengthAdjust="spacing" textLength="3.5156" x="97.7422" y="80.0537">&#160;</text><text fill="#888888" font-family="sans-serif" font-size="10" lengthAdjust="spacing" textLength="185.2539" x="6.873" y="92.207">UMLDoclet 2.2.0, PlantUML 1.2024.6</text><!--SRC=[VP11Qm9138Nl_efNeQ2q37PfBr8y5NffeRJqf1x2R7G7PZFB95LK_EyTLxtqq5mIlhmy7W60coxJkYL4sgKVWxPi93GOb1MK3K8jQqUUlxYZJ9Oo90dt-oRK36uxss4LEDRwbnQp9XNSSnz95SDd3NkUFZpEFbbgpfmNSa6JcUmTURTTcpZTibJLaulUvOjm25ByBt5NKypdrz4rriRb4eS-nQaEQcJ17t5tlXkzPkgQu7KynIQ5kXSUpw5PhBYjKZgrXNo_lxqa7yjZAbUvoJq-8eaLYjiDPmr9HkDV]--></g></svg>