<svg xmlns="http://www.w3.org/2000/svg" xmlns:xlink="http://www.w3.org/1999/xlink" contentStyleType="text/css" height="706px" preserveAspectRatio="none" style="width:1147px;height:706px;background:#FFFFFF;" version="1.1" viewBox="0 0 1147 706" width="1147px" zoomAndPan="magnify"><defs/><g><!--cluster nz.ac.wgtn.swen225.lc.domain.entities.enemies--><g id="cluster_nz.ac.wgtn.swen225.lc.domain.entities.enemies"><path d="M55.5,198 L435.1426,198 A3.75,3.75 0 0 1 437.6426,200.5 L444.6426,221.0146 L838.5,221.0146 A2.5,2.5 0 0 1 841,223.5146 L841,669.5 A2.5,2.5 0 0 1 838.5,672 L55.5,672 A2.5,2.5 0 0 1 53,669.5 L53,200.5 A2.5,2.5 0 0 1 55.5,198 " fill="none" style="stroke:#000000;stroke-width:1.5;"/><line style="stroke:#000000;stroke-width:1.5;" x1="53" x2="444.6426" y1="221.0146" y2="221.0146"/><text fill="#000000" font-family="sans-serif" font-size="14" font-weight="bold" lengthAdjust="spacing" textLength="378.6426" x="57" y="214.0752">nz.ac.wgtn.swen225.lc.domain.entities.enemies</text></g><!--cluster nz.ac.wgtn.swen225.lc.persistency--><g id="cluster_nz.ac.wgtn.swen225.lc.persistency"><path d="M851.5,283 L1128.1729,283 A3.75,3.75 0 0 1 1130.6729,285.5 L1137.6729,306.0146 L1137.5,306.0146 A2.5,2.5 0 0 1 1140,308.5146 L1140,398.5 A2.5,2.5 0 0 1 1137.5,401 L851.5,401 A2.5,2.5 0 0 1 849,398.5 L849,285.5 A2.5,2.5 0 0 1 851.5,283 " fill="none" style="stroke:#000000;stroke-width:1.5;"/><line style="stroke:#000000;stroke-width:1.5;" x1="849" x2="1137.6729" y1="306.0146" y2="306.0146"/><text fill="#000000" font-family="sans-serif" font-size="14" font-weight="bold" lengthAdjust="spacing" textLength="275.6729" x="853" y="299.0752">nz.ac.wgtn.swen225.lc.persistency</text></g><!--cluster java.lang--><g id="cluster_java.lang"><path d="M16.5,46.5 L89.8994,46.5 A3.75,3.75 0 0 1 92.3994,49 L99.3994,69.5146 L282.5,69.5146 A2.5,2.5 0 0 1 285,72.0146 L285,145 A2.5,2.5 0 0 1 282.5,147.5 L16.5,147.5 A2.5,2.5 0 0 1 14,145 L14,49 A2.5,2.5 0 0 1 16.5,46.5 " fill="none" style="stroke:#000000;stroke-width:1.5;"/><line style="stroke:#000000;stroke-width:1.5;" x1="14" x2="99.3994" y1="69.5146" y2="69.5146"/><text fill="#000000" font-family="sans-serif" font-size="14" font-weight="bold" lengthAdjust="spacing" textLength="72.3994" x="18" y="62.5752">java.lang</text></g><!--cluster java.util.function--><g id="cluster_java.util.function"><path d="M314.5,4 L449.8262,4 A3.75,3.75 0 0 1 452.3262,6.5 L459.3262,27.0146 L651.5,27.0146 A2.5,2.5 0 0 1 654,29.5146 L654,187.5 A2.5,2.5 0 0 1 651.5,190 L314.5,190 A2.5,2.5 0 0 1 312,187.5 L312,6.5 A2.5,2.5 0 0 1 314.5,4 " fill="none" style="stroke:#000000;stroke-width:1.5;"/><line style="stroke:#000000;stroke-width:1.5;" x1="312" x2="459.3262" y1="27.0146" y2="27.0146"/><text fill="#000000" font-family="sans-serif" font-size="14" font-weight="bold" lengthAdjust="spacing" textLength="134.3262" x="316" y="20.0752">java.util.function</text></g><!--cluster nz.ac.wgtn.swen225.lc.domain.entities--><g id="cluster_nz.ac.wgtn.swen225.lc.domain.entities"><path d="M664.5,46.5 L973.3154,46.5 A3.75,3.75 0 0 1 975.8154,49 L982.8154,69.5146 L982.5,69.5146 A2.5,2.5 0 0 1 985,72.0146 L985,145 A2.5,2.5 0 0 1 982.5,147.5 L664.5,147.5 A2.5,2.5 0 0 1 662,145 L662,49 A2.5,2.5 0 0 1 664.5,46.5 " fill="none" style="stroke:#000000;stroke-width:1.5;"/><line style="stroke:#000000;stroke-width:1.5;" x1="662" x2="982.8154" y1="69.5146" y2="69.5146"/><text fill="#000000" font-family="sans-serif" font-size="14" font-weight="bold" lengthAdjust="spacing" textLength="307.8154" x="666" y="62.5752">nz.ac.wgtn.swen225.lc.domain.entities</text></g><!--class BitFlipper--><a href="BitFlipper.html" target="_top" title="BitFlipper.html" xlink:actuate="onRequest" xlink:href="BitFlipper.html" xlink:show="new" xlink:title="BitFlipper.html" xlink:type="simple"><g id="elem_BitFlipper"><rect codeLine="6" fill="#F1F1F1" height="150.0879" id="BitFlipper" rx="2.5" ry="2.5" style="stroke:#181818;stroke-width:0.5;" width="532.707" x="62.5" y="514"/><ellipse cx="291.3809" cy="530" fill="#ADD1B2" rx="11" ry="11" style="stroke:#181818;stroke-width:1.0;"/><path d="M295.8652,535.5938 Q294.2402,536.7188 292.334,536.7188 Q289.9434,536.7188 288.6777,535.0781 Q287.4277,533.4375 287.4277,530.375 Q287.4277,527.4531 288.6309,525.75 Q289.8496,524.0313 292.334,524.0313 Q293.2246,524.0313 294.084,524.2656 Q294.959,524.4844 295.6777,525 L295.0371,526.5313 Q293.6777,525.7656 292.334,525.7656 Q290.8652,525.7656 290.1309,526.8438 Q289.4121,527.9219 289.4121,530.375 Q289.4121,535 292.334,535 Q293.6152,535 295.2559,534.0469 L295.8652,535.5938 Z " fill="#000000"/><text fill="#000000" font-family="sans-serif" font-size="14" lengthAdjust="spacing" textLength="66.4453" x="311.8809" y="535.5679">BitFlipper</text><line style="stroke:#181818;stroke-width:0.5;" x1="63.5" x2="594.207" y1="546" y2="546"/><line style="stroke:#181818;stroke-width:0.5;" x1="63.5" x2="594.207" y1="554" y2="554"/><ellipse cx="73.5" cy="568.0073" fill="#84BE84" rx="3" ry="3" style="stroke:#038048;stroke-width:1.0;"/><text fill="#000000" font-family="sans-serif" font-size="14" lengthAdjust="spacing" textLength="154.2529" x="82.5" y="572.0752">BitFlipper(Point, long)</text><polygon fill="#FFFF44" points="73.5,580.022,77.5,584.022,73.5,588.022,69.5,584.022" style="stroke:#B38D22;stroke-width:1.0;"/><text fill="#000000" font-family="sans-serif" font-size="14" lengthAdjust="spacing" textLength="171.1445" x="82.5" y="589.0898">doBehaviour(long): void</text><ellipse cx="73.5" cy="602.0366" fill="#84BE84" rx="3" ry="3" style="stroke:#038048;stroke-width:1.0;"/><text fill="#000000" font-family="sans-serif" font-size="14" lengthAdjust="spacing" textLength="133.2393" x="82.5" y="606.1045">touch(Entity): void</text><ellipse cx="73.5" cy="619.0513" fill="#84BE84" rx="3" ry="3" style="stroke:#038048;stroke-width:1.0;"/><text fill="#000000" font-family="sans-serif" font-size="14" lengthAdjust="spacing" text-decoration="underline" textLength="506.707" x="82.5" y="623.1191">aStar(Point, Point, Maze, BiFunction&lt;Point, Long, Entity&gt;): List&lt;Point&gt;</text><ellipse cx="73.5" cy="636.0659" fill="#84BE84" rx="3" ry="3" style="stroke:#038048;stroke-width:1.0;"/><text fill="#000000" font-family="sans-serif" font-size="14" lengthAdjust="spacing" textLength="225.8662" x="82.5" y="640.1338">fromJson(JSONType): BitFlipper</text><ellipse cx="73.5" cy="653.0806" fill="#84BE84" rx="3" ry="3" style="stroke:#038048;stroke-width:1.0;"/><text fill="#000000" font-family="sans-serif" font-size="14" lengthAdjust="spacing" text-decoration="underline" textLength="232.2783" x="82.5" y="657.1484">fromJSON(JSONType): BitFlipper</text></g></a><!--class Path--><a href="Path.html" target="_top" title="Path.html" xlink:actuate="onRequest" xlink:href="Path.html" xlink:show="new" xlink:title="Path.html" xlink:type="simple"><g id="elem_Path"><rect codeLine="15" fill="#F1F1F1" height="252.1758" id="Path" rx="2.5" ry="2.5" style="stroke:#181818;stroke-width:0.5;" width="330.1309" x="61" y="226"/><ellipse cx="206.2021" cy="242" fill="#ADD1B2" rx="11" ry="11" style="stroke:#181818;stroke-width:1.0;"/><path d="M210.6865,247.5938 Q209.0615,248.7188 207.1553,248.7188 Q204.7646,248.7188 203.499,247.0781 Q202.249,245.4375 202.249,242.375 Q202.249,239.4531 203.4521,237.75 Q204.6709,236.0313 207.1553,236.0313 Q208.0459,236.0313 208.9053,236.2656 Q209.7803,236.4844 210.499,237 L209.8584,238.5313 Q208.499,237.7656 207.1553,237.7656 Q205.6865,237.7656 204.9521,238.8438 Q204.2334,239.9219 204.2334,242.375 Q204.2334,247 207.1553,247 Q208.4365,247 210.0771,246.0469 L210.6865,247.5938 Z " fill="#000000"/><text fill="#000000" font-family="sans-serif" font-size="14" lengthAdjust="spacing" textLength="31.2266" x="226.7021" y="247.5679">Path</text><line style="stroke:#181818;stroke-width:0.5;" x1="62" x2="390.1309" y1="258" y2="258"/><line style="stroke:#181818;stroke-width:0.5;" x1="62" x2="390.1309" y1="266" y2="266"/><ellipse cx="72" cy="280.0073" fill="#84BE84" rx="3" ry="3" style="stroke:#038048;stroke-width:1.0;"/><text fill="#000000" font-family="sans-serif" font-size="14" lengthAdjust="spacing" textLength="222.5098" x="81" y="284.0752">Path(Path, Point, double, Point)</text><ellipse cx="72" cy="297.022" fill="#84BE84" rx="3" ry="3" style="stroke:#038048;stroke-width:1.0;"/><text fill="#000000" font-family="sans-serif" font-size="14" lengthAdjust="spacing" textLength="124.2705" x="81" y="301.0898">Path(Point, Point)</text><ellipse cx="72" cy="314.0366" fill="#84BE84" rx="3" ry="3" style="stroke:#038048;stroke-width:1.0;"/><text fill="#000000" font-family="sans-serif" font-size="14" lengthAdjust="spacing" textLength="304.1309" x="81" y="318.1045">Path(Optional&lt;Path&gt;, Point, double, Point)</text><ellipse cx="72" cy="331.0513" fill="#84BE84" rx="3" ry="3" style="stroke:#038048;stroke-width:1.0;"/><text fill="#000000" font-family="sans-serif" font-size="14" lengthAdjust="spacing" textLength="189.6973" x="81" y="335.1191">estimatedWeight(): double</text><ellipse cx="72" cy="348.0659" fill="#84BE84" rx="3" ry="3" style="stroke:#038048;stroke-width:1.0;"/><text fill="#000000" font-family="sans-serif" font-size="14" lengthAdjust="spacing" textLength="151.8809" x="81" y="352.1338">totalWeight(): double</text><ellipse cx="72" cy="365.0806" fill="#84BE84" rx="3" ry="3" style="stroke:#038048;stroke-width:1.0;"/><text fill="#000000" font-family="sans-serif" font-size="14" lengthAdjust="spacing" textLength="151.416" x="81" y="369.1484">compareTo(Path): int</text><ellipse cx="72" cy="382.0952" fill="#84BE84" rx="3" ry="3" style="stroke:#038048;stroke-width:1.0;"/><text fill="#000000" font-family="sans-serif" font-size="14" lengthAdjust="spacing" textLength="182.6426" x="81" y="386.1631">stream(): Stream&lt;Point&gt;</text><ellipse cx="72" cy="399.1099" fill="#84BE84" rx="3" ry="3" style="stroke:#038048;stroke-width:1.0;"/><text fill="#000000" font-family="sans-serif" font-size="14" lengthAdjust="spacing" textLength="144.9697" x="81" y="403.1777">toList(): List&lt;Point&gt;</text><ellipse cx="72" cy="416.1245" fill="#84BE84" rx="3" ry="3" style="stroke:#038048;stroke-width:1.0;"/><text fill="#000000" font-family="sans-serif" font-size="14" lengthAdjust="spacing" textLength="168.1641" x="81" y="420.1924">prev(): Optional&lt;Path&gt;</text><ellipse cx="72" cy="433.1392" fill="#84BE84" rx="3" ry="3" style="stroke:#038048;stroke-width:1.0;"/><text fill="#000000" font-family="sans-serif" font-size="14" lengthAdjust="spacing" textLength="111.3916" x="81" y="437.207">newLoc(): Point</text><ellipse cx="72" cy="450.1538" fill="#84BE84" rx="3" ry="3" style="stroke:#038048;stroke-width:1.0;"/><text fill="#000000" font-family="sans-serif" font-size="14" lengthAdjust="spacing" textLength="117.7148" x="81" y="454.2217">weight(): double</text><ellipse cx="72" cy="467.1685" fill="#84BE84" rx="3" ry="3" style="stroke:#038048;stroke-width:1.0;"/><text fill="#000000" font-family="sans-serif" font-size="14" lengthAdjust="spacing" textLength="88.6211" x="81" y="471.2363">goal(): Point</text></g></a><!--class ItemChooser--><a href="ItemChooser.html" target="_top" title="ItemChooser.html" xlink:actuate="onRequest" xlink:href="ItemChooser.html" xlink:show="new" xlink:title="ItemChooser.html" xlink:type="simple"><g id="elem_ItemChooser"><rect codeLine="30" fill="#F1F1F1" height="82.0293" id="ItemChooser" rx="2.5" ry="2.5" style="stroke:#181818;stroke-width:0.5;" width="165.1934" x="409.5" y="311"/><ellipse cx="443.6654" cy="327" fill="#ADD1B2" rx="11" ry="11" style="stroke:#181818;stroke-width:1.0;"/><path d="M448.1498,332.5938 Q446.5248,333.7188 444.6186,333.7188 Q442.2279,333.7188 440.9623,332.0781 Q439.7123,330.4375 439.7123,327.375 Q439.7123,324.4531 440.9154,322.75 Q442.1342,321.0313 444.6186,321.0313 Q445.5092,321.0313 446.3686,321.2656 Q447.2436,321.4844 447.9623,322 L447.3217,323.5313 Q445.9623,322.7656 444.6186,322.7656 Q443.1498,322.7656 442.4154,323.8438 Q441.6967,324.9219 441.6967,327.375 Q441.6967,332 444.6186,332 Q445.8998,332 447.5404,331.0469 L448.1498,332.5938 Z " fill="#000000"/><text fill="#000000" font-family="sans-serif" font-size="14" lengthAdjust="spacing" textLength="90.6035" x="461.9244" y="332.5679">ItemChooser</text><line style="stroke:#181818;stroke-width:0.5;" x1="410.5" x2="573.6934" y1="343" y2="343"/><line style="stroke:#181818;stroke-width:0.5;" x1="410.5" x2="573.6934" y1="351" y2="351"/><ellipse cx="420.5" cy="365.0073" fill="#84BE84" rx="3" ry="3" style="stroke:#038048;stroke-width:1.0;"/><text fill="#000000" font-family="sans-serif" font-size="14" lengthAdjust="spacing" textLength="121.5361" x="429.5" y="369.0752">ItemChooser(int)</text><ellipse cx="420.5" cy="382.022" fill="#84BE84" rx="3" ry="3" style="stroke:#038048;stroke-width:1.0;"/><text fill="#000000" font-family="sans-serif" font-size="14" lengthAdjust="spacing" textLength="139.1934" x="429.5" y="386.0898">test(Item): boolean</text></g></a><!--class Bug--><a href="Bug.html" target="_top" title="Bug.html" xlink:actuate="onRequest" xlink:href="Bug.html" xlink:show="new" xlink:title="Bug.html" xlink:type="simple"><g id="elem_Bug"><rect codeLine="35" fill="#F1F1F1" height="133.0732" id="Bug" rx="2.5" ry="2.5" style="stroke:#181818;stroke-width:0.5;" width="219.0127" x="613.5" y="522.5"/><ellipse cx="705.1665" cy="538.5" fill="#ADD1B2" rx="11" ry="11" style="stroke:#181818;stroke-width:1.0;"/><path d="M709.6509,544.0938 Q708.0259,545.2188 706.1196,545.2188 Q703.729,545.2188 702.4634,543.5781 Q701.2134,541.9375 701.2134,538.875 Q701.2134,535.9531 702.4165,534.25 Q703.6353,532.5313 706.1196,532.5313 Q707.0103,532.5313 707.8696,532.7656 Q708.7446,532.9844 709.4634,533.5 L708.8228,535.0313 Q707.4634,534.2656 706.1196,534.2656 Q704.6509,534.2656 703.9165,535.3438 Q703.1978,536.4219 703.1978,538.875 Q703.1978,543.5 706.1196,543.5 Q707.4009,543.5 709.0415,542.5469 L709.6509,544.0938 Z " fill="#000000"/><text fill="#000000" font-family="sans-serif" font-size="14" lengthAdjust="spacing" textLength="27.1797" x="725.6665" y="544.0679">Bug</text><line style="stroke:#181818;stroke-width:0.5;" x1="614.5" x2="831.5127" y1="554.5" y2="554.5"/><line style="stroke:#181818;stroke-width:0.5;" x1="614.5" x2="831.5127" y1="562.5" y2="562.5"/><ellipse cx="624.5" cy="576.5073" fill="#84BE84" rx="3" ry="3" style="stroke:#038048;stroke-width:1.0;"/><text fill="#000000" font-family="sans-serif" font-size="14" lengthAdjust="spacing" textLength="114.9873" x="633.5" y="580.5752">Bug(Point, long)</text><polygon fill="#FFFF44" points="624.5,588.522,628.5,592.522,624.5,596.522,620.5,592.522" style="stroke:#B38D22;stroke-width:1.0;"/><text fill="#000000" font-family="sans-serif" font-size="14" lengthAdjust="spacing" textLength="171.1445" x="633.5" y="597.5898">doBehaviour(long): void</text><ellipse cx="624.5" cy="610.5366" fill="#84BE84" rx="3" ry="3" style="stroke:#038048;stroke-width:1.0;"/><text fill="#000000" font-family="sans-serif" font-size="14" lengthAdjust="spacing" textLength="133.2393" x="633.5" y="614.6045">touch(Entity): void</text><ellipse cx="624.5" cy="627.5513" fill="#84BE84" rx="3" ry="3" style="stroke:#038048;stroke-width:1.0;"/><text fill="#000000" font-family="sans-serif" font-size="14" lengthAdjust="spacing" textLength="186.6006" x="633.5" y="631.6191">fromJson(JSONType): Bug</text><ellipse cx="624.5" cy="644.5659" fill="#84BE84" rx="3" ry="3" style="stroke:#038048;stroke-width:1.0;"/><text fill="#000000" font-family="sans-serif" font-size="14" lengthAdjust="spacing" text-decoration="underline" textLength="193.0127" x="633.5" y="648.6338">fromJSON(JSONType): Bug</text></g></a><!--class Enemy--><a href="Enemy.html" target="_top" title="Enemy.html" xlink:actuate="onRequest" xlink:href="Enemy.html" xlink:show="new" xlink:title="Enemy.html" xlink:type="simple"><g id="elem_Enemy"><rect codeLine="43" fill="#F1F1F1" height="235.1611" id="Enemy" rx="2.5" ry="2.5" style="stroke:#181818;stroke-width:0.5;" width="239.7871" x="593" y="234.5"/><ellipse cx="684.6699" cy="250.5" fill="#A9DCDF" rx="11" ry="11" style="stroke:#181818;stroke-width:1.0;"/><path d="M690.3105,256.25 L688.3262,256.25 L687.0449,252.1563 L683.5762,252.1563 L682.2637,256.25 L680.2949,256.25 L684.2949,244 L686.3105,244 L690.3105,256.25 Z M686.4824,250.4375 L685.2949,246.7344 L684.1387,250.4375 L686.4824,250.4375 Z " fill="#000000"/><text fill="#000000" font-family="sans-serif" font-size="14" font-style="italic" lengthAdjust="spacing" textLength="47.9473" x="705.1699" y="256.0679">Enemy</text><line style="stroke:#181818;stroke-width:0.5;" x1="594" x2="831.7871" y1="266.5" y2="266.5"/><polygon fill="none" points="604,275.5073,608,279.5073,604,283.5073,600,279.5073" style="stroke:#B38D22;stroke-width:1.0;"/><text fill="#000000" font-family="sans-serif" font-size="14" lengthAdjust="spacing" textLength="192.2061" x="613" y="284.5752">behaviourDecider: Random</text><ellipse cx="604" cy="297.522" fill="none" rx="3" ry="3" style="stroke:#038048;stroke-width:1.0;"/><text fill="#000000" font-family="sans-serif" font-size="14" lengthAdjust="spacing" text-decoration="underline" textLength="119.6289" x="613" y="301.5898">dirs: List&lt;Point&gt;</text><polygon fill="none" points="604,309.5366,608,313.5366,604,317.5366,600,313.5366" style="stroke:#B38D22;stroke-width:1.0;"/><text fill="#000000" font-family="sans-serif" font-size="14" lengthAdjust="spacing" textLength="101.9854" x="613" y="318.6045">lastRand: long</text><line style="stroke:#181818;stroke-width:0.5;" x1="594" x2="831.7871" y1="325.5439" y2="325.5439"/><ellipse cx="604" cy="339.5513" fill="#84BE84" rx="3" ry="3" style="stroke:#038048;stroke-width:1.0;"/><text fill="#000000" font-family="sans-serif" font-size="14" lengthAdjust="spacing" textLength="135.7617" x="613" y="343.6191">Enemy(Point, long)</text><ellipse cx="604" cy="356.5659" fill="#84BE84" rx="3" ry="3" style="stroke:#038048;stroke-width:1.0;"/><text fill="#000000" font-family="sans-serif" font-size="14" lengthAdjust="spacing" textLength="126.9639" x="613" y="360.6338">maze(Maze): void</text><ellipse cx="604" cy="373.5806" fill="#84BE84" rx="3" ry="3" style="stroke:#038048;stroke-width:1.0;"/><text fill="#000000" font-family="sans-serif" font-size="14" lengthAdjust="spacing" textLength="108.1992" x="613" y="377.6484">tick(long): void</text><polygon fill="#FFFF44" points="604,385.5952,608,389.5952,604,393.5952,600,389.5952" style="stroke:#B38D22;stroke-width:1.0;"/><text fill="#000000" font-family="sans-serif" font-size="14" font-style="italic" lengthAdjust="spacing" textLength="171.0967" x="613" y="394.6631">doBehaviour(long): void</text><ellipse cx="604" cy="407.6099" fill="#84BE84" rx="3" ry="3" style="stroke:#038048;stroke-width:1.0;"/><text fill="#000000" font-family="sans-serif" font-size="14" lengthAdjust="spacing" textLength="186.7305" x="613" y="411.6777">canTouch(Entity): boolean</text><ellipse cx="604" cy="424.6245" fill="#84BE84" rx="3" ry="3" style="stroke:#038048;stroke-width:1.0;"/><text fill="#000000" font-family="sans-serif" font-size="14" lengthAdjust="spacing" textLength="133.2393" x="613" y="428.6924">touch(Entity): void</text><polygon fill="#FFFF44" points="604,436.6392,608,440.6392,604,444.6392,600,440.6392" style="stroke:#B38D22;stroke-width:1.0;"/><text fill="#000000" font-family="sans-serif" font-size="14" lengthAdjust="spacing" textLength="198.9668" x="613" y="445.707">randUpToSpeed(Long): void</text><ellipse cx="604" cy="458.6538" fill="#84BE84" rx="3" ry="3" style="stroke:#038048;stroke-width:1.0;"/><text fill="#000000" font-family="sans-serif" font-size="14" lengthAdjust="spacing" text-decoration="underline" textLength="213.7871" x="613" y="462.7217">fromJSON(JSONType): Enemy</text></g></a><!--class JSONSerializable--><a href="../../../persistency/JSONSerializable.html" target="_top" title="../../../persistency/JSONSerializable.html" xlink:actuate="onRequest" xlink:href="../../../persistency/JSONSerializable.html" xlink:show="new" xlink:title="../../../persistency/JSONSerializable.html" xlink:type="simple"><g id="elem_JSONSerializable"><rect codeLine="60" fill="#F1F1F1" height="82.0293" id="JSONSerializable" rx="2.5" ry="2.5" style="stroke:#181818;stroke-width:0.5;" width="194.041" x="857" y="311"/><ellipse cx="886.73" cy="327" fill="#B4A7E5" rx="11" ry="11" style="stroke:#181818;stroke-width:1.0;"/><path d="M889.9644,333.5 L884.105,333.5 L884.105,331.7813 L886.1363,331.7813 L886.1363,322.9688 L884.105,322.9688 L884.105,321.25 L889.9644,321.25 L889.9644,322.9688 L888.0269,322.9688 L888.0269,331.7813 L889.9644,331.7813 L889.9644,333.5 Z " fill="#000000"/><text fill="#000000" font-family="sans-serif" font-size="14" font-style="italic" lengthAdjust="spacing" textLength="117.9131" x="904.0034" y="332.5679">JSONSerializable</text><rect fill="#FFFFFF" height="16.584" style="stroke:#181818;stroke-width:1.0;stroke-dasharray:2.0,2.0;" width="9.3945" x="1044.6465" y="308"/><text fill="#000000" font-family="sans-serif" font-size="12" font-style="italic" lengthAdjust="spacing" textLength="7.3945" x="1045.6465" y="321.0645">T</text><line style="stroke:#181818;stroke-width:0.5;" x1="858" x2="1050.041" y1="343" y2="343"/><line style="stroke:#181818;stroke-width:0.5;" x1="858" x2="1050.041" y1="351" y2="351"/><ellipse cx="868" cy="365.0073" fill="#84BE84" rx="3" ry="3" style="stroke:#038048;stroke-width:1.0;"/><text fill="#000000" font-family="sans-serif" font-size="14" font-style="italic" lengthAdjust="spacing" textLength="140.4102" x="877" y="369.0752">toJson(): JSONType</text><ellipse cx="868" cy="382.022" fill="#84BE84" rx="3" ry="3" style="stroke:#038048;stroke-width:1.0;"/><text fill="#000000" font-family="sans-serif" font-size="14" font-style="italic" lengthAdjust="spacing" textLength="168.041" x="877" y="386.0898">fromJson(JSONType): T</text></g></a><!--class Record--><g id="elem_Record"><rect codeLine="67" fill="#F1F1F1" height="48" id="Record" rx="2.5" ry="2.5" style="stroke:#181818;stroke-width:0.5;" width="80.5625" x="195.5" y="83"/><ellipse cx="210.5" cy="99" fill="#A9DCDF" rx="11" ry="11" style="stroke:#181818;stroke-width:1.0;"/><path d="M216.1406,104.75 L214.1563,104.75 L212.875,100.6563 L209.4063,100.6563 L208.0938,104.75 L206.125,104.75 L210.125,92.5 L212.1406,92.5 L216.1406,104.75 Z M212.3125,98.9375 L211.125,95.2344 L209.9688,98.9375 L212.3125,98.9375 Z " fill="#000000"/><text fill="#000000" font-family="sans-serif" font-size="14" font-style="italic" lengthAdjust="spacing" textLength="48.5625" x="224.5" y="104.5679">Record</text><line style="stroke:#181818;stroke-width:0.5;" x1="196.5" x2="275.0625" y1="115" y2="115"/><line style="stroke:#181818;stroke-width:0.5;" x1="196.5" x2="275.0625" y1="123" y2="123"/></g><!--class Comparable--><g id="elem_Comparable"><rect codeLine="68" fill="#F1F1F1" height="65.0146" id="Comparable" rx="2.5" ry="2.5" style="stroke:#181818;stroke-width:0.5;" width="154.8232" x="22.5" y="74.5"/><ellipse cx="49.7014" cy="90.5" fill="#B4A7E5" rx="11" ry="11" style="stroke:#181818;stroke-width:1.0;"/><path d="M52.9358,97 L47.0764,97 L47.0764,95.2813 L49.1077,95.2813 L49.1077,86.4688 L47.0764,86.4688 L47.0764,84.75 L52.9358,84.75 L52.9358,86.4688 L50.9983,86.4688 L50.9983,95.2813 L52.9358,95.2813 L52.9358,97 Z " fill="#000000"/><text fill="#000000" font-family="sans-serif" font-size="14" font-style="italic" lengthAdjust="spacing" textLength="84.3145" x="66.4128" y="96.0679">Comparable</text><rect fill="#FFFFFF" height="16.584" style="stroke:#181818;stroke-width:1.0;stroke-dasharray:2.0,2.0;" width="9.3945" x="170.9287" y="71.5"/><text fill="#000000" font-family="sans-serif" font-size="12" font-style="italic" lengthAdjust="spacing" textLength="7.3945" x="171.9287" y="84.5645">T</text><line style="stroke:#181818;stroke-width:0.5;" x1="23.5" x2="176.3232" y1="106.5" y2="106.5"/><line style="stroke:#181818;stroke-width:0.5;" x1="23.5" x2="176.3232" y1="114.5" y2="114.5"/><ellipse cx="33.5" cy="128.5073" fill="#84BE84" rx="3" ry="3" style="stroke:#038048;stroke-width:1.0;"/><text fill="#000000" font-family="sans-serif" font-size="14" font-style="italic" lengthAdjust="spacing" textLength="128.8232" x="42.5" y="132.5752">compareTo(T): int</text></g><!--class Predicate--><g id="elem_Predicate"><rect codeLine="74" fill="#F1F1F1" height="150.0879" id="Predicate" rx="2.5" ry="2.5" style="stroke:#181818;stroke-width:0.5;" width="325.4961" x="320.5" y="32"/><ellipse cx="440.8608" cy="48" fill="#B4A7E5" rx="11" ry="11" style="stroke:#181818;stroke-width:1.0;"/><path d="M444.0952,54.5 L438.2358,54.5 L438.2358,52.7813 L440.2671,52.7813 L440.2671,43.9688 L438.2358,43.9688 L438.2358,42.25 L444.0952,42.25 L444.0952,43.9688 L442.1577,43.9688 L442.1577,52.7813 L444.0952,52.7813 L444.0952,54.5 Z " fill="#000000"/><text fill="#000000" font-family="sans-serif" font-size="14" font-style="italic" lengthAdjust="spacing" textLength="64.8799" x="461.3608" y="53.5679">Predicate</text><rect fill="#FFFFFF" height="16.584" style="stroke:#181818;stroke-width:1.0;stroke-dasharray:2.0,2.0;" width="9.3945" x="639.6016" y="29"/><text fill="#000000" font-family="sans-serif" font-size="12" font-style="italic" lengthAdjust="spacing" textLength="7.3945" x="640.6016" y="42.0645">T</text><line style="stroke:#181818;stroke-width:0.5;" x1="321.5" x2="644.9961" y1="64" y2="64"/><line style="stroke:#181818;stroke-width:0.5;" x1="321.5" x2="644.9961" y1="72" y2="72"/><ellipse cx="331.5" cy="86.0073" fill="#84BE84" rx="3" ry="3" style="stroke:#038048;stroke-width:1.0;"/><text fill="#000000" font-family="sans-serif" font-size="14" font-style="italic" lengthAdjust="spacing" textLength="114.4541" x="340.5" y="90.0752">test(T): boolean</text><ellipse cx="331.5" cy="103.022" fill="#84BE84" rx="3" ry="3" style="stroke:#038048;stroke-width:1.0;"/><text fill="#000000" font-family="sans-serif" font-size="14" lengthAdjust="spacing" textLength="299.4961" x="340.5" y="107.0898">and(Predicate&lt;? super T&gt;): Predicate&lt;T&gt;</text><ellipse cx="331.5" cy="120.0366" fill="#84BE84" rx="3" ry="3" style="stroke:#038048;stroke-width:1.0;"/><text fill="#000000" font-family="sans-serif" font-size="14" lengthAdjust="spacing" textLength="168.6016" x="340.5" y="124.1045">negate(): Predicate&lt;T&gt;</text><ellipse cx="331.5" cy="137.0513" fill="#84BE84" rx="3" ry="3" style="stroke:#038048;stroke-width:1.0;"/><text fill="#000000" font-family="sans-serif" font-size="14" lengthAdjust="spacing" textLength="287.9775" x="340.5" y="141.1191">or(Predicate&lt;? super T&gt;): Predicate&lt;T&gt;</text><ellipse cx="331.5" cy="154.0659" fill="#84BE84" rx="3" ry="3" style="stroke:#038048;stroke-width:1.0;"/><text fill="#000000" font-family="sans-serif" font-size="14" lengthAdjust="spacing" text-decoration="underline" textLength="215.9473" x="340.5" y="158.1338">isEqual(Object): Predicate&lt;T&gt;</text><ellipse cx="331.5" cy="171.0806" fill="#84BE84" rx="3" ry="3" style="stroke:#038048;stroke-width:1.0;"/><text fill="#000000" font-family="sans-serif" font-size="14" lengthAdjust="spacing" text-decoration="underline" textLength="296.3789" x="340.5" y="175.1484">not(Predicate&lt;? super T&gt;): Predicate&lt;T&gt;</text></g><!--class MoveableEntity--><a href="../MoveableEntity.html" target="_top" title="../MoveableEntity.html" xlink:actuate="onRequest" xlink:href="../MoveableEntity.html" xlink:show="new" xlink:title="../MoveableEntity.html" xlink:type="simple"><g id="elem_MoveableEntity"><rect codeLine="85" fill="#F1F1F1" height="65.0146" id="MoveableEntity" rx="2.5" ry="2.5" style="stroke:#181818;stroke-width:0.5;" width="139.0781" x="670.5" y="74.5"/><ellipse cx="685.5" cy="90.5" fill="#A9DCDF" rx="11" ry="11" style="stroke:#181818;stroke-width:1.0;"/><path d="M691.1406,96.25 L689.1563,96.25 L687.875,92.1563 L684.4063,92.1563 L683.0938,96.25 L681.125,96.25 L685.125,84 L687.1406,84 L691.1406,96.25 Z M687.3125,90.4375 L686.125,86.7344 L684.9688,90.4375 L687.3125,90.4375 Z " fill="#000000"/><text fill="#000000" font-family="sans-serif" font-size="14" font-style="italic" lengthAdjust="spacing" textLength="107.0781" x="699.5" y="96.0679">MoveableEntity</text><line style="stroke:#181818;stroke-width:0.5;" x1="671.5" x2="808.5781" y1="106.5" y2="106.5"/><polygon fill="none" points="681.5,115.5073,685.5,119.5073,681.5,123.5073,677.5,119.5073" style="stroke:#B38D22;stroke-width:1.0;"/><text fill="#000000" font-family="sans-serif" font-size="14" lengthAdjust="spacing" textLength="108.418" x="690.5" y="124.5752">lastMove: Point</text><line style="stroke:#181818;stroke-width:0.5;" x1="671.5" x2="808.5781" y1="131.5146" y2="131.5146"/></g></a><polygon fill="none" points="595.0689,469.5613,576.9997,475.3493,584.0864,485.0333,595.0689,469.5613" style="stroke:#181818;stroke-width:1.0;"/><path d="M580.543,480.1913 C561.0409,493.1712 542.2124,503.0053 520.53,513.969 " fill="none" style="stroke:#181818;stroke-width:1.0;"/><polygon fill="none" points="930.1459,393.005,915.1045,404.5702,925.052,411.282,930.1459,393.005" style="stroke:#181818;stroke-width:1.0;"/><path d="M920.0782,407.9261 C900.8257,436.46 881.1147,458.2247 845,478 C750.0089,530.0142 710.0192,491.893 604,514 C601.217,514.5803 598.4202,515.1719 595.6118,515.7739 " fill="none" style="stroke:#181818;stroke-width:1.0;stroke-dasharray:7.0,7.0;"/><polygon fill="none" points="235.0412,131.2999,228.3061,149.0379,240.296,149.5313,235.0412,131.2999" style="stroke:#181818;stroke-width:1.0;"/><path d="M234.301,149.2846 C233.3771,171.7361 232.6434,189.5647 231.1516,225.8158 " fill="none" style="stroke:#181818;stroke-width:1.0;"/><polygon fill="none" points="116.4723,139.768,119.4315,158.5095,130.0845,152.9857,116.4723,139.768" style="stroke:#181818;stroke-width:1.0;"/><path d="M124.758,155.7476 C136.3983,178.1968 144.541,193.9005 161.1416,225.9159 " fill="none" style="stroke:#181818;stroke-width:1.0;stroke-dasharray:7.0,7.0;"/><polygon fill="none" points="485.7492,182.2284,480.4195,200.4381,492.4113,199.994,485.7492,182.2284" style="stroke:#181818;stroke-width:1.0;"/><path d="M486.4154,200.2161 C487.9817,242.507 489.2171,275.8627 490.5086,310.7329 " fill="none" style="stroke:#181818;stroke-width:1.0;stroke-dasharray:7.0,7.0;"/><polygon fill="none" points="717.9707,469.8115,712.7414,488.0503,724.7305,487.5402,717.9707,469.8115" style="stroke:#181818;stroke-width:1.0;"/><path d="M718.736,487.7953 C719.5056,505.8805 719.5108,506.0037 720.2093,522.4186 " fill="none" style="stroke:#181818;stroke-width:1.0;"/><polygon fill="none" points="921.051,393.2148,904.881,403.1411,914.0708,410.8578,921.051,393.2148" style="stroke:#181818;stroke-width:1.0;"/><path d="M909.4759,406.9994 C888.4362,432.0552 871.7522,450.8002 845,478 C830.4016,492.8427 814.2085,508.1649 798.5173,522.4863 " fill="none" style="stroke:#181818;stroke-width:1.0;stroke-dasharray:7.0,7.0;"/><polygon fill="none" points="736.4702,139.768,728.5192,156.9953,740.4458,158.3205,736.4702,139.768" style="stroke:#181818;stroke-width:1.0;"/><path d="M734.4825,157.6579 C731.7665,182.1011 729.822,199.6019 725.9501,234.4488 " fill="none" style="stroke:#181818;stroke-width:1.0;"/><text fill="#888888" font-family="sans-serif" font-size="10" lengthAdjust="spacing" textLength="3.5156" x="563.7422" y="684.0537">&#160;</text><text fill="#888888" font-family="sans-serif" font-size="10" lengthAdjust="spacing" textLength="185.2539" x="472.873" y="696.207">UMLDoclet 2.2.0, PlantUML 1.2024.6</text><!--SRC=[lLTRJzim57xdLtYg9WK1OQgqbwZg96xIK1c81ks1yN3gdAQ6nCuIfwYm_lST9osvD2bjfr4XNDkVppdVkTbbZB5FKGn-22o0cKerIqBK866FTbY2DCS8Oj0gPewpbwr6m9_0HoPVRE3siw-bdJoZx7Q_sW6tFHM2a3PABRJ0XBvWI2DxpG-R3myWITY9q1U1Y2ACsVrzCR4dEWmU7WZFIf-30c3TA27r8GkKzFShe8wdJd02Kw7IsCgs7JPLmgjAqYhb4-lSs3Th0hmc6hJWStO0GmrlwXR35RpW8Tb-aKgkXPAznVg0r1soN6gVn0v4elEzVbNzE5RXPQAaTJcy_k7E8YHmGQx5akmGuTyvDA_x-0RqXBnhXXQ_cYtB_7jZwAbq5E1Ykj-4BZcaQVywCew1e6Tc_OtaOg9521gzdoZyYRQ8NWwlXqv3i1x2LKZvYgxAI168b5KHYOuHGdD-c7rhZ99M9e3Mka16CKuDe4gtYf7uF53Se389rStdjKHy1S7gmPK8VzSOdawKIh8oAirQubr2MAjnq1G8oq18yKYf046sgpv9VLEvgTzMigd_lskrkPfIVvioAg5B5654UG9SBxYUKnUR4TjiRERR6Itvd24N7iOEkmL9xR3564_4INjwTKYjDkUTp7bLrfaLxRuz2Ab9MQPJDJjLyATMbxykYSyt3147wLQZL4-SZIBPYOdhNUIgOOJeMOCsyzR6ClDBFPhpJMujwg89HG8bdvN2Ilx5U0mScL4on5X085w0QhNdzYaRRFiu_oiTFwv3cxEbv6VoJPR2H639fHNQbEzkYN43uKUOWXs0z4iMrBBx5hcAlGRQfratNH9kPr1qNRVMSjjDIhK8xF7Y6crq-asCdk1qBQnNdZKjjotnAAsiGj0tbgJcnU6QExeilzwtVLgsrc9KlBNS8dj5SluxfGP_FNf4hZSx8vNUIkDyy_IlFThQC-LAJT6aGrx8UGbKrrgQesbd1hXwePMCtEf5wJXvK-xzEJhQzcJjxVHkJt2SUbMJMjl-HxLlbUauUGNknCKyE-hYYhhToSwgo4gXqkOortOINNf_V7385_VyXyLwhRxQCSUf5TOk38lRZwFfeMoib1b-oRkhmPdY0VsQwzfT-mkzmIbDDAsoprD3t5m-Vm40]--></g></svg>