<svg xmlns="http://www.w3.org/2000/svg" xmlns:xlink="http://www.w3.org/1999/xlink" contentStyleType="text/css" height="601px" preserveAspectRatio="none" style="width:1955px;height:601px;background:#FFFFFF;" version="1.1" viewBox="0 0 1955 601" width="1955px" zoomAndPan="magnify"><defs/><g><!--cluster nz.ac.wgtn.swen225.lc.app--><g id="cluster_nz.ac.wgtn.swen225.lc.app"><path d="M16.5,158 L231.6631,158 A3.75,3.75 0 0 1 234.1631,160.5 L241.1631,181.0146 L1945.5,181.0146 A2.5,2.5 0 0 1 1948,183.5146 L1948,443.5 A2.5,2.5 0 0 1 1945.5,446 L16.5,446 A2.5,2.5 0 0 1 14,443.5 L14,160.5 A2.5,2.5 0 0 1 16.5,158 " fill="none" style="stroke:#000000;stroke-width:1.5;"/><line style="stroke:#000000;stroke-width:1.5;" x1="14" x2="241.1631" y1="181.0146" y2="181.0146"/><text fill="#000000" font-family="sans-serif" font-size="14" font-weight="bold" lengthAdjust="spacing" textLength="214.1631" x="18" y="174.0752">nz.ac.wgtn.swen225.lc.app</text></g><!--cluster javax.swing--><g id="cluster_javax.swing"><path d="M808.5,4 L903.9316,4 A3.75,3.75 0 0 1 906.4316,6.5 L913.4316,27.0146 L1109.5,27.0146 A2.5,2.5 0 0 1 1112,29.5146 L1112,136.5 A2.5,2.5 0 0 1 1109.5,139 L808.5,139 A2.5,2.5 0 0 1 806,136.5 L806,6.5 A2.5,2.5 0 0 1 808.5,4 " fill="none" style="stroke:#000000;stroke-width:1.5;"/><line style="stroke:#000000;stroke-width:1.5;" x1="806" x2="913.4316" y1="27.0146" y2="27.0146"/><text fill="#000000" font-family="sans-serif" font-size="14" font-weight="bold" lengthAdjust="spacing" textLength="94.4316" x="810" y="20.0752">javax.swing</text></g><!--cluster nz.ac.wgtn.swen225.lc.app.panels--><g id="cluster_nz.ac.wgtn.swen225.lc.app.panels"><path d="M777.5,483 L1049.2236,483 A3.75,3.75 0 0 1 1051.7236,485.5 L1058.7236,506.0146 L1058.5,506.0146 A2.5,2.5 0 0 1 1061,508.5146 L1061,564.5 A2.5,2.5 0 0 1 1058.5,567 L777.5,567 A2.5,2.5 0 0 1 775,564.5 L775,485.5 A2.5,2.5 0 0 1 777.5,483 " fill="none" style="stroke:#000000;stroke-width:1.5;"/><line style="stroke:#000000;stroke-width:1.5;" x1="775" x2="1058.7236" y1="506.0146" y2="506.0146"/><text fill="#000000" font-family="sans-serif" font-size="14" font-weight="bold" lengthAdjust="spacing" textLength="270.7236" x="779" y="499.0752">nz.ac.wgtn.swen225.lc.app.panels</text></g><!--cluster nz.ac.wgtn.swen225.lc.app.buttons--><g id="cluster_nz.ac.wgtn.swen225.lc.app.buttons"><path d="M1130.5,483 L1411.1309,483 A3.75,3.75 0 0 1 1413.6309,485.5 L1420.6309,506.0146 L1420.5,506.0146 A2.5,2.5 0 0 1 1423,508.5146 L1423,564.5 A2.5,2.5 0 0 1 1420.5,567 L1130.5,567 A2.5,2.5 0 0 1 1128,564.5 L1128,485.5 A2.5,2.5 0 0 1 1130.5,483 " fill="none" style="stroke:#000000;stroke-width:1.5;"/><line style="stroke:#000000;stroke-width:1.5;" x1="1128" x2="1420.6309" y1="506.0146" y2="506.0146"/><text fill="#000000" font-family="sans-serif" font-size="14" font-weight="bold" lengthAdjust="spacing" textLength="279.6309" x="1132" y="499.0752">nz.ac.wgtn.swen225.lc.app.buttons</text></g><!--cluster nz.ac.wgtn.swen225.lc.app.keybinders--><g id="cluster_nz.ac.wgtn.swen225.lc.app.keybinders"><path d="M1433.5,483 L1740.4219,483 A3.75,3.75 0 0 1 1742.9219,485.5 L1749.9219,506.0146 L1749.5,506.0146 A2.5,2.5 0 0 1 1752,508.5146 L1752,564.5 A2.5,2.5 0 0 1 1749.5,567 L1433.5,567 A2.5,2.5 0 0 1 1431,564.5 L1431,485.5 A2.5,2.5 0 0 1 1433.5,483 " fill="none" style="stroke:#000000;stroke-width:1.5;"/><line style="stroke:#000000;stroke-width:1.5;" x1="1431" x2="1749.9219" y1="506.0146" y2="506.0146"/><text fill="#000000" font-family="sans-serif" font-size="14" font-weight="bold" lengthAdjust="spacing" textLength="305.9219" x="1435" y="499.0752">nz.ac.wgtn.swen225.lc.app.keybinders</text></g><!--class GameInfo--><a href="GameInfo.html" target="_top" title="GameInfo.html" xlink:actuate="onRequest" xlink:href="GameInfo.html" xlink:show="new" xlink:title="GameInfo.html" xlink:type="simple"><g id="elem_GameInfo"><rect codeLine="6" fill="#F1F1F1" height="167.1025" id="GameInfo" rx="2.5" ry="2.5" style="stroke:#181818;stroke-width:0.5;" width="306.2393" x="1588" y="228.5"/><ellipse cx="1702.1738" cy="244.5" fill="#ADD1B2" rx="11" ry="11" style="stroke:#181818;stroke-width:1.0;"/><path d="M1706.6582,250.0938 Q1705.0332,251.2188 1703.127,251.2188 Q1700.7363,251.2188 1699.4707,249.5781 Q1698.2207,247.9375 1698.2207,244.875 Q1698.2207,241.9531 1699.4238,240.25 Q1700.6426,238.5313 1703.127,238.5313 Q1704.0176,238.5313 1704.877,238.7656 Q1705.752,238.9844 1706.4707,239.5 L1705.8301,241.0313 Q1704.4707,240.2656 1703.127,240.2656 Q1701.6582,240.2656 1700.9238,241.3438 Q1700.2051,242.4219 1700.2051,244.875 Q1700.2051,249.5 1703.127,249.5 Q1704.4082,249.5 1706.0488,248.5469 L1706.6582,250.0938 Z " fill="#000000"/><text fill="#000000" font-family="sans-serif" font-size="14" lengthAdjust="spacing" textLength="69.3916" x="1722.6738" y="250.0679">GameInfo</text><line style="stroke:#181818;stroke-width:0.5;" x1="1589" x2="1893.2393" y1="260.5" y2="260.5"/><line style="stroke:#181818;stroke-width:0.5;" x1="1589" x2="1893.2393" y1="268.5" y2="268.5"/><ellipse cx="1599" cy="282.5073" fill="#84BE84" rx="3" ry="3" style="stroke:#038048;stroke-width:1.0;"/><text fill="#000000" font-family="sans-serif" font-size="14" lengthAdjust="spacing" textLength="280.2393" x="1608" y="286.5752">initialiseInformation(long, int, int): void</text><polygon fill="#FFFF44" points="1599,294.522,1603,298.522,1599,302.522,1595,298.522" style="stroke:#B38D22;stroke-width:1.0;"/><text fill="#000000" font-family="sans-serif" font-size="14" lengthAdjust="spacing" textLength="253.9824" x="1608" y="303.5898">setTimeAndTreasuresCounts(): void</text><ellipse cx="1599" cy="316.5366" fill="#84BE84" rx="3" ry="3" style="stroke:#038048;stroke-width:1.0;"/><text fill="#000000" font-family="sans-serif" font-size="14" lengthAdjust="spacing" textLength="224.7041" x="1608" y="320.6045">decreaseTimeRemaining(): void</text><ellipse cx="1599" cy="333.5513" fill="#84BE84" rx="3" ry="3" style="stroke:#038048;stroke-width:1.0;"/><text fill="#000000" font-family="sans-serif" font-size="14" lengthAdjust="spacing" textLength="259.3896" x="1608" y="337.6191">decreaseTreasuresRemaining(): void</text><ellipse cx="1599" cy="350.5659" fill="#84BE84" rx="3" ry="3" style="stroke:#038048;stroke-width:1.0;"/><text fill="#000000" font-family="sans-serif" font-size="14" lengthAdjust="spacing" textLength="173.4414" x="1608" y="354.6338">getTimeRemaining(): int</text><ellipse cx="1599" cy="367.5806" fill="#84BE84" rx="3" ry="3" style="stroke:#038048;stroke-width:1.0;"/><text fill="#000000" font-family="sans-serif" font-size="14" lengthAdjust="spacing" textLength="208.127" x="1608" y="371.6484">getTreasuresRemaining(): int</text><ellipse cx="1599" cy="384.5952" fill="#84BE84" rx="3" ry="3" style="stroke:#038048;stroke-width:1.0;"/><text fill="#000000" font-family="sans-serif" font-size="14" lengthAdjust="spacing" textLength="129.7734" x="1608" y="388.6631">getLevelID(): long</text></g></a><!--class UserInterface--><a href="UserInterface.html" target="_top" title="UserInterface.html" xlink:actuate="onRequest" xlink:href="UserInterface.html" xlink:show="new" xlink:title="UserInterface.html" xlink:type="simple"><g id="elem_UserInterface"><rect codeLine="16" fill="#F1F1F1" height="218.1465" id="UserInterface" rx="2.5" ry="2.5" style="stroke:#181818;stroke-width:0.5;" width="224.9736" x="846.5" y="203"/><ellipse cx="907.0356" cy="219" fill="#ADD1B2" rx="11" ry="11" style="stroke:#181818;stroke-width:1.0;"/><path d="M911.52,224.5938 Q909.895,225.7188 907.9888,225.7188 Q905.5981,225.7188 904.3325,224.0781 Q903.0825,222.4375 903.0825,219.375 Q903.0825,216.4531 904.2856,214.75 Q905.5044,213.0313 907.9888,213.0313 Q908.8794,213.0313 909.7388,213.2656 Q910.6138,213.4844 911.3325,214 L910.6919,215.5313 Q909.3325,214.7656 907.9888,214.7656 Q906.52,214.7656 905.7856,215.8438 Q905.0669,216.9219 905.0669,219.375 Q905.0669,224 907.9888,224 Q909.27,224 910.9106,223.0469 L911.52,224.5938 Z " fill="#000000"/><text fill="#000000" font-family="sans-serif" font-size="14" lengthAdjust="spacing" textLength="95.4023" x="927.5356" y="224.5679">UserInterface</text><line style="stroke:#181818;stroke-width:0.5;" x1="847.5" x2="1070.4736" y1="235" y2="235"/><line style="stroke:#181818;stroke-width:0.5;" x1="847.5" x2="1070.4736" y1="243" y2="243"/><ellipse cx="857.5" cy="257.0073" fill="#84BE84" rx="3" ry="3" style="stroke:#038048;stroke-width:1.0;"/><text fill="#000000" font-family="sans-serif" font-size="14" lengthAdjust="spacing" textLength="135.0713" x="866.5" y="261.0752">createMenu(): void</text><polygon fill="#FFFF44" points="857.5,269.022,861.5,273.022,857.5,277.022,853.5,273.022" style="stroke:#B38D22;stroke-width:1.0;"/><text fill="#000000" font-family="sans-serif" font-size="14" lengthAdjust="spacing" textLength="167.9795" x="866.5" y="278.0898">createMainMenu(): void</text><ellipse cx="857.5" cy="291.0366" fill="#84BE84" rx="3" ry="3" style="stroke:#038048;stroke-width:1.0;"/><text fill="#000000" font-family="sans-serif" font-size="14" lengthAdjust="spacing" textLength="181.6104" x="866.5" y="295.1045">startNewGame(File): void</text><ellipse cx="857.5" cy="308.0513" fill="#84BE84" rx="3" ry="3" style="stroke:#038048;stroke-width:1.0;"/><text fill="#000000" font-family="sans-serif" font-size="14" lengthAdjust="spacing" textLength="136.0693" x="866.5" y="312.1191">initLevel(File): void</text><ellipse cx="857.5" cy="325.0659" fill="#84BE84" rx="3" ry="3" style="stroke:#038048;stroke-width:1.0;"/><text fill="#000000" font-family="sans-serif" font-size="14" lengthAdjust="spacing" textLength="140.1709" x="866.5" y="329.1338">initLevelInfo(): void</text><ellipse cx="857.5" cy="342.0806" fill="#84BE84" rx="3" ry="3" style="stroke:#038048;stroke-width:1.0;"/><text fill="#000000" font-family="sans-serif" font-size="14" lengthAdjust="spacing" textLength="127.2715" x="866.5" y="346.1484">startGame(): void</text><ellipse cx="857.5" cy="359.0952" fill="#84BE84" rx="3" ry="3" style="stroke:#038048;stroke-width:1.0;"/><text fill="#000000" font-family="sans-serif" font-size="14" lengthAdjust="spacing" textLength="198.9736" x="866.5" y="363.1631">goBetweenLevels(File): void</text><polygon fill="#FFFF44" points="857.5,371.1099,861.5,375.1099,857.5,379.1099,853.5,375.1099" style="stroke:#B38D22;stroke-width:1.0;"/><text fill="#000000" font-family="sans-serif" font-size="14" lengthAdjust="spacing" textLength="126.8887" x="866.5" y="380.1777">saveGame(): void</text><polygon fill="#FFFF44" points="857.5,388.1245,861.5,392.1245,857.5,396.1245,853.5,392.1245" style="stroke:#B38D22;stroke-width:1.0;"/><text fill="#000000" font-family="sans-serif" font-size="14" lengthAdjust="spacing" textLength="120.4834" x="866.5" y="397.1924">endGame(): void</text><ellipse cx="857.5" cy="410.1392" fill="#84BE84" rx="3" ry="3" style="stroke:#038048;stroke-width:1.0;"/><text fill="#000000" font-family="sans-serif" font-size="14" lengthAdjust="spacing" textLength="188.959" x="866.5" y="414.207">startGamePlayback(): void</text></g></a><!--class Main--><a href="Main.html" target="_top" title="Main.html" xlink:actuate="onRequest" xlink:href="Main.html" xlink:show="new" xlink:title="Main.html" xlink:type="simple"><g id="elem_Main"><rect codeLine="29" fill="#F1F1F1" height="65.0146" id="Main" rx="2.5" ry="2.5" style="stroke:#181818;stroke-width:0.5;" width="169.2676" x="1122.5" y="279.5"/><ellipse cx="1186.4297" cy="295.5" fill="#ADD1B2" rx="11" ry="11" style="stroke:#181818;stroke-width:1.0;"/><path d="M1190.9141,301.0938 Q1189.2891,302.2188 1187.3828,302.2188 Q1184.9922,302.2188 1183.7266,300.5781 Q1182.4766,298.9375 1182.4766,295.875 Q1182.4766,292.9531 1183.6797,291.25 Q1184.8984,289.5313 1187.3828,289.5313 Q1188.2734,289.5313 1189.1328,289.7656 Q1190.0078,289.9844 1190.7266,290.5 L1190.0859,292.0313 Q1188.7266,291.2656 1187.3828,291.2656 Q1185.9141,291.2656 1185.1797,292.3438 Q1184.4609,293.4219 1184.4609,295.875 Q1184.4609,300.5 1187.3828,300.5 Q1188.6641,300.5 1190.3047,299.5469 L1190.9141,301.0938 Z " fill="#000000"/><text fill="#000000" font-family="sans-serif" font-size="14" lengthAdjust="spacing" textLength="32.9082" x="1206.9297" y="301.0679">Main</text><line style="stroke:#181818;stroke-width:0.5;" x1="1123.5" x2="1290.7676" y1="311.5" y2="311.5"/><line style="stroke:#181818;stroke-width:0.5;" x1="1123.5" x2="1290.7676" y1="319.5" y2="319.5"/><ellipse cx="1133.5" cy="333.5073" fill="#84BE84" rx="3" ry="3" style="stroke:#038048;stroke-width:1.0;"/><text fill="#000000" font-family="sans-serif" font-size="14" lengthAdjust="spacing" text-decoration="underline" textLength="143.2676" x="1142.5" y="337.5752">main(String[]): void</text></g></a><!--class IOController--><a href="IOController.html" target="_top" title="IOController.html" xlink:actuate="onRequest" xlink:href="IOController.html" xlink:show="new" xlink:title="IOController.html" xlink:type="simple"><g id="elem_IOController"><rect codeLine="33" fill="#F1F1F1" height="150.0879" id="IOController" rx="2.5" ry="2.5" style="stroke:#181818;stroke-width:0.5;" width="228.2002" x="1310" y="237"/><ellipse cx="1376.835" cy="253" fill="#ADD1B2" rx="11" ry="11" style="stroke:#181818;stroke-width:1.0;"/><path d="M1381.3193,258.5938 Q1379.6943,259.7188 1377.7881,259.7188 Q1375.3975,259.7188 1374.1318,258.0781 Q1372.8818,256.4375 1372.8818,253.375 Q1372.8818,250.4531 1374.085,248.75 Q1375.3037,247.0313 1377.7881,247.0313 Q1378.6787,247.0313 1379.5381,247.2656 Q1380.4131,247.4844 1381.1318,248 L1380.4912,249.5313 Q1379.1318,248.7656 1377.7881,248.7656 Q1376.3193,248.7656 1375.585,249.8438 Q1374.8662,250.9219 1374.8662,253.375 Q1374.8662,258 1377.7881,258 Q1379.0693,258 1380.71,257.0469 L1381.3193,258.5938 Z " fill="#000000"/><text fill="#000000" font-family="sans-serif" font-size="14" lengthAdjust="spacing" textLength="86.0303" x="1397.335" y="258.5679">IOController</text><line style="stroke:#181818;stroke-width:0.5;" x1="1311" x2="1537.2002" y1="269" y2="269"/><line style="stroke:#181818;stroke-width:0.5;" x1="1311" x2="1537.2002" y1="277" y2="277"/><ellipse cx="1321" cy="291.0073" fill="#84BE84" rx="3" ry="3" style="stroke:#038048;stroke-width:1.0;"/><text fill="#000000" font-family="sans-serif" font-size="14" lengthAdjust="spacing" textLength="202.2002" x="1330" y="295.0752">resumeExistingGame(): void</text><ellipse cx="1321" cy="308.022" fill="#84BE84" rx="3" ry="3" style="stroke:#038048;stroke-width:1.0;"/><text fill="#000000" font-family="sans-serif" font-size="14" lengthAdjust="spacing" textLength="175.6494" x="1330" y="312.0898">endGame(boolean): void</text><ellipse cx="1321" cy="325.0366" fill="#84BE84" rx="3" ry="3" style="stroke:#038048;stroke-width:1.0;"/><text fill="#000000" font-family="sans-serif" font-size="14" lengthAdjust="spacing" textLength="136.1855" x="1330" y="329.1045">pauseGame(): void</text><ellipse cx="1321" cy="342.0513" fill="#84BE84" rx="3" ry="3" style="stroke:#038048;stroke-width:1.0;"/><text fill="#000000" font-family="sans-serif" font-size="14" lengthAdjust="spacing" textLength="131.0654" x="1330" y="346.1191">stopTimers(): void</text><ellipse cx="1321" cy="359.0659" fill="#84BE84" rx="3" ry="3" style="stroke:#038048;stroke-width:1.0;"/><text fill="#000000" font-family="sans-serif" font-size="14" lengthAdjust="spacing" textLength="133.7451" x="1330" y="363.1338">startTimers(): void</text><ellipse cx="1321" cy="376.0806" fill="#84BE84" rx="3" ry="3" style="stroke:#038048;stroke-width:1.0;"/><text fill="#000000" font-family="sans-serif" font-size="14" lengthAdjust="spacing" textLength="148.0596" x="1330" y="380.1484">restartTimers(): void</text></g></a><!--class Recorders--><a href="Recorders.html" target="_top" title="Recorders.html" xlink:actuate="onRequest" xlink:href="Recorders.html" xlink:show="new" xlink:title="Recorders.html" xlink:type="simple"><g id="elem_Recorders"><rect codeLine="42" fill="#F1F1F1" height="252.1758" id="Recorders" rx="2.5" ry="2.5" style="stroke:#181818;stroke-width:0.5;" width="343.748" x="436" y="186"/><ellipse cx="568.5386" cy="202" fill="#ADD1B2" rx="11" ry="11" style="stroke:#181818;stroke-width:1.0;"/><path d="M573.0229,207.5938 Q571.3979,208.7188 569.4917,208.7188 Q567.1011,208.7188 565.8354,207.0781 Q564.5854,205.4375 564.5854,202.375 Q564.5854,199.4531 565.7886,197.75 Q567.0073,196.0313 569.4917,196.0313 Q570.3823,196.0313 571.2417,196.2656 Q572.1167,196.4844 572.8354,197 L572.1948,198.5313 Q570.8354,197.7656 569.4917,197.7656 Q568.0229,197.7656 567.2886,198.8438 Q566.5698,199.9219 566.5698,202.375 Q566.5698,207 569.4917,207 Q570.7729,207 572.4136,206.0469 L573.0229,207.5938 Z " fill="#000000"/><text fill="#000000" font-family="sans-serif" font-size="14" lengthAdjust="spacing" textLength="70.1709" x="589.0386" y="207.5679">Recorders</text><line style="stroke:#181818;stroke-width:0.5;" x1="437" x2="778.748" y1="218" y2="218"/><line style="stroke:#181818;stroke-width:0.5;" x1="437" x2="778.748" y1="226" y2="226"/><ellipse cx="447" cy="240.0073" fill="#84BE84" rx="3" ry="3" style="stroke:#038048;stroke-width:1.0;"/><text fill="#000000" font-family="sans-serif" font-size="14" lengthAdjust="spacing" textLength="145.6533" x="456" y="244.0752">getRecPath(): String</text><ellipse cx="447" cy="257.022" fill="#84BE84" rx="3" ry="3" style="stroke:#038048;stroke-width:1.0;"/><text fill="#000000" font-family="sans-serif" font-size="14" lengthAdjust="spacing" textLength="131.9541" x="456" y="261.0898">autoReplay(): void</text><ellipse cx="447" cy="274.0366" fill="#84BE84" rx="3" ry="3" style="stroke:#038048;stroke-width:1.0;"/><text fill="#000000" font-family="sans-serif" font-size="14" lengthAdjust="spacing" textLength="125.6104" x="456" y="278.1045">tickReplay(): void</text><ellipse cx="447" cy="291.0513" fill="#84BE84" rx="3" ry="3" style="stroke:#038048;stroke-width:1.0;"/><text fill="#000000" font-family="sans-serif" font-size="14" lengthAdjust="spacing" textLength="130.5459" x="456" y="295.1191">stepReplay(): void</text><ellipse cx="447" cy="308.0659" fill="#84BE84" rx="3" ry="3" style="stroke:#038048;stroke-width:1.0;"/><text fill="#000000" font-family="sans-serif" font-size="14" lengthAdjust="spacing" textLength="156.208" x="456" y="312.1338">callStepReplay(): void</text><ellipse cx="447" cy="325.0806" fill="#84BE84" rx="3" ry="3" style="stroke:#038048;stroke-width:1.0;"/><text fill="#000000" font-family="sans-serif" font-size="14" lengthAdjust="spacing" textLength="223.8633" x="456" y="329.1484">startRecordingLevel(Path): void</text><ellipse cx="447" cy="342.0952" fill="#84BE84" rx="3" ry="3" style="stroke:#038048;stroke-width:1.0;"/><text fill="#000000" font-family="sans-serif" font-size="14" lengthAdjust="spacing" textLength="243.2568" x="456" y="346.1631">stopRecordingCurrentLevel(): void</text><ellipse cx="447" cy="359.1099" fill="#84BE84" rx="3" ry="3" style="stroke:#038048;stroke-width:1.0;"/><text fill="#000000" font-family="sans-serif" font-size="14" lengthAdjust="spacing" textLength="194.5781" x="456" y="363.1777">stopRecordingGame(): void</text><ellipse cx="447" cy="376.1245" fill="#84BE84" rx="3" ry="3" style="stroke:#038048;stroke-width:1.0;"/><text fill="#000000" font-family="sans-serif" font-size="14" lengthAdjust="spacing" textLength="317.748" x="456" y="380.1924">forwardActionToRecorder(PlayerAction): void</text><polygon fill="#FFFF44" points="447,388.1392,451,392.1392,447,396.1392,443,392.1392" style="stroke:#B38D22;stroke-width:1.0;"/><text fill="#000000" font-family="sans-serif" font-size="14" lengthAdjust="spacing" textLength="184.2354" x="456" y="397.207">askToRecordGame(): void</text><ellipse cx="447" cy="410.1538" fill="#84BE84" rx="3" ry="3" style="stroke:#038048;stroke-width:1.0;"/><text fill="#000000" font-family="sans-serif" font-size="14" lengthAdjust="spacing" textLength="210.7246" x="456" y="414.2217">initRecorderGame(Path): void</text><ellipse cx="447" cy="427.1685" fill="#84BE84" rx="3" ry="3" style="stroke:#038048;stroke-width:1.0;"/><text fill="#000000" font-family="sans-serif" font-size="14" lengthAdjust="spacing" textLength="205.8301" x="456" y="431.2363">startGameReplay(Path): void</text></g></a><!--class App--><a href="App.html" target="_top" title="App.html" xlink:actuate="onRequest" xlink:href="App.html" xlink:show="new" xlink:title="App.html" xlink:type="simple"><g id="elem_App"><rect codeLine="57" fill="#F1F1F1" height="150.0879" id="App" rx="2.5" ry="2.5" style="stroke:#181818;stroke-width:0.5;" width="396.4053" x="22" y="237"/><ellipse cx="202.4448" cy="253" fill="#ADD1B2" rx="11" ry="11" style="stroke:#181818;stroke-width:1.0;"/><path d="M206.9292,258.5938 Q205.3042,259.7188 203.3979,259.7188 Q201.0073,259.7188 199.7417,258.0781 Q198.4917,256.4375 198.4917,253.375 Q198.4917,250.4531 199.6948,248.75 Q200.9136,247.0313 203.3979,247.0313 Q204.2886,247.0313 205.1479,247.2656 Q206.0229,247.4844 206.7417,248 L206.1011,249.5313 Q204.7417,248.7656 203.3979,248.7656 Q201.9292,248.7656 201.1948,249.8438 Q200.4761,250.9219 200.4761,253.375 Q200.4761,258 203.3979,258 Q204.6792,258 206.3198,257.0469 L206.9292,258.5938 Z " fill="#000000"/><text fill="#000000" font-family="sans-serif" font-size="14" lengthAdjust="spacing" textLength="27.0156" x="222.9448" y="258.5679">App</text><line style="stroke:#181818;stroke-width:0.5;" x1="23" x2="417.4053" y1="269" y2="269"/><line style="stroke:#181818;stroke-width:0.5;" x1="23" x2="417.4053" y1="277" y2="277"/><ellipse cx="33" cy="291.0073" fill="#84BE84" rx="3" ry="3" style="stroke:#038048;stroke-width:1.0;"/><text fill="#000000" font-family="sans-serif" font-size="14" lengthAdjust="spacing" text-decoration="underline" textLength="138.7764" x="42" y="295.0752">tickOverride(): void</text><ellipse cx="33" cy="308.022" fill="#84BE84" rx="3" ry="3" style="stroke:#038048;stroke-width:1.0;"/><text fill="#000000" font-family="sans-serif" font-size="14" lengthAdjust="spacing" text-decoration="underline" textLength="308.8818" x="42" y="312.0898">forwardActionToDomain(PlayerAction): void</text><ellipse cx="33" cy="325.0366" fill="#84BE84" rx="3" ry="3" style="stroke:#038048;stroke-width:1.0;"/><text fill="#000000" font-family="sans-serif" font-size="14" lengthAdjust="spacing" text-decoration="underline" textLength="245.5947" x="42" y="329.1045">getButtons(): List&lt;DefaultButton&gt;</text><ellipse cx="33" cy="342.0513" fill="#84BE84" rx="3" ry="3" style="stroke:#038048;stroke-width:1.0;"/><text fill="#000000" font-family="sans-serif" font-size="14" lengthAdjust="spacing" text-decoration="underline" textLength="370.4053" x="42" y="346.1191">strokesToPlayerAction(): Map&lt;String, PlayerAction&gt;</text><ellipse cx="33" cy="359.0659" fill="#84BE84" rx="3" ry="3" style="stroke:#038048;stroke-width:1.0;"/><text fill="#000000" font-family="sans-serif" font-size="14" lengthAdjust="spacing" text-decoration="underline" textLength="322.0068" x="42" y="363.1338">strokesToUIAction(): Map&lt;String, Runnable&gt;</text><ellipse cx="33" cy="376.0806" fill="#84BE84" rx="3" ry="3" style="stroke:#038048;stroke-width:1.0;"/><text fill="#000000" font-family="sans-serif" font-size="14" lengthAdjust="spacing" text-decoration="underline" textLength="293.583" x="42" y="380.1484">startMenuButtons(): List&lt;DefaultButton&gt;</text></g></a><!--class JFrame--><g id="elem_JFrame"><rect codeLine="69" fill="#F1F1F1" height="99.0439" id="JFrame" rx="2.5" ry="2.5" style="stroke:#181818;stroke-width:0.5;" width="289.3613" x="814.5" y="32"/><ellipse cx="929.5557" cy="48" fill="#ADD1B2" rx="11" ry="11" style="stroke:#181818;stroke-width:1.0;"/><path d="M934.04,53.5938 Q932.415,54.7188 930.5088,54.7188 Q928.1182,54.7188 926.8525,53.0781 Q925.6025,51.4375 925.6025,48.375 Q925.6025,45.4531 926.8057,43.75 Q928.0244,42.0313 930.5088,42.0313 Q931.3994,42.0313 932.2588,42.2656 Q933.1338,42.4844 933.8525,43 L933.2119,44.5313 Q931.8525,43.7656 930.5088,43.7656 Q929.04,43.7656 928.3057,44.8438 Q927.5869,45.9219 927.5869,48.375 Q927.5869,53 930.5088,53 Q931.79,53 933.4307,52.0469 L934.04,53.5938 Z " fill="#000000"/><text fill="#000000" font-family="sans-serif" font-size="14" lengthAdjust="spacing" textLength="50.75" x="950.0557" y="53.5679">JFrame</text><line style="stroke:#181818;stroke-width:0.5;" x1="815.5" x2="1102.8613" y1="64" y2="64"/><polygon fill="none" points="825.5,73.0073,829.5,77.0073,825.5,81.0073,821.5,77.0073" style="stroke:#B38D22;stroke-width:1.0;"/><text fill="#000000" font-family="sans-serif" font-size="14" lengthAdjust="spacing" textLength="146.4736" x="834.5" y="82.0752">rootPane: JRootPane</text><polygon fill="none" points="825.5,90.022,829.5,94.022,825.5,98.022,821.5,94.022" style="stroke:#B38D22;stroke-width:1.0;"/><text fill="#000000" font-family="sans-serif" font-size="14" lengthAdjust="spacing" textLength="248.7051" x="834.5" y="99.0898">rootPaneCheckingEnabled: boolean</text><polygon fill="none" points="825.5,107.0366,829.5,111.0366,825.5,115.0366,821.5,111.0366" style="stroke:#B38D22;stroke-width:1.0;"/><text fill="#000000" font-family="sans-serif" font-size="14" lengthAdjust="spacing" textLength="263.3613" x="834.5" y="116.1045">accessibleContext: AccessibleContext</text><line style="stroke:#181818;stroke-width:0.5;" x1="815.5" x2="1102.8613" y1="123.0439" y2="123.0439"/></g><!--class GameGraphicsPane--><g id="elem_GameGraphicsPane"><rect fill="#F1F1F1" height="48" id="GameGraphicsPane" rx="2.5" ry="2.5" style="stroke:#181818;stroke-width:0.5;" width="168.5205" x="874.5" y="511"/><ellipse cx="889.5" cy="527" fill="#ADD1B2" rx="11" ry="11" style="stroke:#181818;stroke-width:1.0;"/><path d="M893.9844,532.5938 Q892.3594,533.7188 890.4531,533.7188 Q888.0625,533.7188 886.7969,532.0781 Q885.5469,530.4375 885.5469,527.375 Q885.5469,524.4531 886.75,522.75 Q887.9688,521.0313 890.4531,521.0313 Q891.3438,521.0313 892.2031,521.2656 Q893.0781,521.4844 893.7969,522 L893.1563,523.5313 Q891.7969,522.7656 890.4531,522.7656 Q888.9844,522.7656 888.25,523.8438 Q887.5313,524.9219 887.5313,527.375 Q887.5313,532 890.4531,532 Q891.7344,532 893.375,531.0469 L893.9844,532.5938 Z " fill="#000000"/><text fill="#000000" font-family="sans-serif" font-size="14" lengthAdjust="spacing" textLength="136.5205" x="903.5" y="532.5679">GameGraphicsPane</text><line style="stroke:#181818;stroke-width:0.5;" x1="875.5" x2="1042.0205" y1="543" y2="543"/><line style="stroke:#181818;stroke-width:0.5;" x1="875.5" x2="1042.0205" y1="551" y2="551"/></g><!--class DefaultButton--><g id="elem_DefaultButton"><rect fill="#F1F1F1" height="48" id="DefaultButton" rx="2.5" ry="2.5" style="stroke:#181818;stroke-width:0.5;" width="129.5215" x="1285" y="511"/><ellipse cx="1300" cy="527" fill="#ADD1B2" rx="11" ry="11" style="stroke:#181818;stroke-width:1.0;"/><path d="M1304.4844,532.5938 Q1302.8594,533.7188 1300.9531,533.7188 Q1298.5625,533.7188 1297.2969,532.0781 Q1296.0469,530.4375 1296.0469,527.375 Q1296.0469,524.4531 1297.25,522.75 Q1298.4688,521.0313 1300.9531,521.0313 Q1301.8438,521.0313 1302.7031,521.2656 Q1303.5781,521.4844 1304.2969,522 L1303.6563,523.5313 Q1302.2969,522.7656 1300.9531,522.7656 Q1299.4844,522.7656 1298.75,523.8438 Q1298.0313,524.9219 1298.0313,527.375 Q1298.0313,532 1300.9531,532 Q1302.2344,532 1303.875,531.0469 L1304.4844,532.5938 Z " fill="#000000"/><text fill="#000000" font-family="sans-serif" font-size="14" lengthAdjust="spacing" textLength="97.5215" x="1314" y="532.5679">DefaultButton</text><line style="stroke:#181818;stroke-width:0.5;" x1="1286" x2="1413.5215" y1="543" y2="543"/><line style="stroke:#181818;stroke-width:0.5;" x1="1286" x2="1413.5215" y1="551" y2="551"/></g><!--class ControlKeys--><g id="elem_ControlKeys"><rect fill="#F1F1F1" height="48" id="ControlKeys" rx="2.5" ry="2.5" style="stroke:#181818;stroke-width:0.5;" width="116.5811" x="1439.5" y="511"/><ellipse cx="1454.5" cy="527" fill="#ADD1B2" rx="11" ry="11" style="stroke:#181818;stroke-width:1.0;"/><path d="M1458.9844,532.5938 Q1457.3594,533.7188 1455.4531,533.7188 Q1453.0625,533.7188 1451.7969,532.0781 Q1450.5469,530.4375 1450.5469,527.375 Q1450.5469,524.4531 1451.75,522.75 Q1452.9688,521.0313 1455.4531,521.0313 Q1456.3438,521.0313 1457.2031,521.2656 Q1458.0781,521.4844 1458.7969,522 L1458.1563,523.5313 Q1456.7969,522.7656 1455.4531,522.7656 Q1453.9844,522.7656 1453.25,523.8438 Q1452.5313,524.9219 1452.5313,527.375 Q1452.5313,532 1455.4531,532 Q1456.7344,532 1458.375,531.0469 L1458.9844,532.5938 Z " fill="#000000"/><text fill="#000000" font-family="sans-serif" font-size="14" lengthAdjust="spacing" textLength="84.5811" x="1468.5" y="532.5679">ControlKeys</text><line style="stroke:#181818;stroke-width:0.5;" x1="1440.5" x2="1555.0811" y1="543" y2="543"/><line style="stroke:#181818;stroke-width:0.5;" x1="1440.5" x2="1555.0811" y1="551" y2="551"/></g><polygon fill="#181818" points="1894.1036,333.0371,1903.9515,333.1762,1898.7009,331.0711,1900.8059,325.8205,1894.1036,333.0371" style="stroke:#181818;stroke-width:1.0;"/><path d="M1894.1036,290.9629 C1905.2051,295.7103 1912,302.7227 1912,312 C1912,321.2773 1910.7218,325.9306 1899.6203,330.6779 " fill="none" style="stroke:#181818;stroke-width:1.0;"/><text fill="#000000" font-family="sans-serif" font-size="13" lengthAdjust="spacing" textLength="24.2544" x="1914" y="317.5698">info</text><polygon fill="none" points="959,131.2387,953,149.2387,965,149.2387,959,131.2387" style="stroke:#181818;stroke-width:1.0;"/><path d="M959,149.2387 C959,170.2099 959,177.629 959,202.6679 " fill="none" style="stroke:#181818;stroke-width:1.0;"/><polygon fill="#181818" points="1071.7578,335.0449,1081.606,335.1599,1076.3502,333.0677,1078.4424,327.812,1071.7578,335.0449" style="stroke:#181818;stroke-width:1.0;"/><path d="M1071.7578,288.9551 C1082.6182,293.6309 1089.5,301.3125 1089.5,312 C1089.5,322.6875 1088.1291,327.9965 1077.2687,332.6723 " fill="none" style="stroke:#181818;stroke-width:1.0;"/><text fill="#000000" font-family="sans-serif" font-size="13" lengthAdjust="spacing" textLength="11.7939" x="1091.5" y="317.5698">ui</text><polygon fill="#181818" points="959,510.6024,963,501.6024,959,505.6024,955,501.6024,959,510.6024" style="stroke:#181818;stroke-width:1.0;"/><path d="M959,421.234 C959,454.9185 959,482.8838 959,504.6024 " fill="none" style="stroke:#181818;stroke-width:1.0;"/><text fill="#000000" font-family="sans-serif" font-size="13" lengthAdjust="spacing" textLength="86.5122" x="961" y="471.0698">graphicsPane</text><polygon fill="#181818" points="1538.0538,335.0449,1547.9015,335.2006,1542.6544,333.0867,1544.7683,327.8397,1538.0538,335.0449" style="stroke:#181818;stroke-width:1.0;"/><path d="M1538.0538,288.9551 C1549.0391,293.6309 1556,301.3125 1556,312 C1556,322.6875 1554.5598,328.0193 1543.5745,332.6951 " fill="none" style="stroke:#181818;stroke-width:1.0;"/><text fill="#000000" font-family="sans-serif" font-size="13" lengthAdjust="spacing" textLength="10.3403" x="1558" y="317.5698">ic</text><polygon fill="#181818" points="1353.2007,510.8394,1358.553,502.5718,1353.9791,505.9004,1350.6506,501.3264,1353.2007,510.8394" style="stroke:#181818;stroke-width:1.0;"/><path d="M1390.026,387.3009 C1380.9643,409.1119 1371.8113,433.2289 1365,456 C1359.586,474.0996 1356.6048,489.2388 1354.1348,504.9126 " fill="none" style="stroke:#181818;stroke-width:1.0;"/><text fill="#000000" font-family="sans-serif" font-size="13" lengthAdjust="spacing" textLength="97.5063" x="1367" y="471.0698">mainUIButtons</text><text fill="#000000" font-family="sans-serif" font-size="13" lengthAdjust="spacing" textLength="8.2646" x="1344.2007" y="507.9092">*</text><polygon fill="#181818" points="1490.2619,510.8903,1491.1973,501.0859,1488.6743,506.149,1483.6112,503.626,1490.2619,510.8903" style="stroke:#181818;stroke-width:1.0;"/><path d="M1448.8468,387.2046 C1463.2906,430.3409 1478.609,476.0891 1488.3568,505.2007 " fill="none" style="stroke:#181818;stroke-width:1.0;"/><text fill="#000000" font-family="sans-serif" font-size="13" lengthAdjust="spacing" textLength="87.312" x="1480" y="471.0698">keyController</text><polygon fill="#181818" points="780.1419,332.2182,789.9893,332.3863,784.7449,330.2658,786.8654,325.0214,780.1419,332.2182" style="stroke:#181818;stroke-width:1.0;"/><path d="M780.1419,291.7818 C791.272,296.5028 798,303.2422 798,312 C798,320.7578 796.7956,325.1543 785.6655,329.8753 " fill="none" style="stroke:#181818;stroke-width:1.0;"/><text fill="#000000" font-family="sans-serif" font-size="13" lengthAdjust="spacing" textLength="26.8379" x="800" y="317.5698">recs</text><text fill="#888888" font-family="sans-serif" font-size="10" lengthAdjust="spacing" textLength="3.5156" x="967.7422" y="579.0537">&#160;</text><text fill="#888888" font-family="sans-serif" font-size="10" lengthAdjust="spacing" textLength="185.2539" x="876.873" y="591.207">UMLDoclet 2.2.0, PlantUML 1.2024.6</text><!--SRC=[hLTRJzim57xdLtXKaxeLeWbfBnP2AbULmK2bF7KydBgd9QjhHxRJmXZ_VST9Mf8s5oRHXpQnFv_BzvrZkumnzYaoC9q3a_2iOyVi71qesA4PPf7UCG83JXl6-Kuo6e6OmHIP-XE029PJfmAxH7Lmy3sG8e0eOYyfq7-416lP1SonfoQQ3OUhn-3HpUN30s5PxjC9LUX2aA5DG6OEBjIgBRMQxh5GkUJh2sSB7OuB2riKwo2SOrUD1mR1nWRjYOwLi-qoU6UCmiFGh-dZ7CYlcZP0LtORyDCqaWAAeju6bTehGrxX0cNlr4zx9jRphviytriqFUNGJ40WaLruhs3S9-Vm6bLScauhcwS8Ap4Twy2udxZquhRFGucbAAzjaiex85xz6b-9etBszJ6w9Q9ApDXALoqB2wmqqq8rhlQn3k6MccP4xR05srB6yqU2-9zo7Lx8g0l5A-luOcZVEKC5CNneDDoxET7A6Iqb6dAGVwqGd2ekdkFPKsWTkQZESaN1I6k9e4en4SGMwuZIaUy5Osk8h0DGh3MGBJBwABGP4vIOM3zNq41zHP1RS8_URift4G6nqtsCIEFou4YkMTsyTHZLpGkGygu1awIVfaBnfTtZOwwaUuqzYOr1bJLSCxnQHDg6bs36NU6tue5UyThsnOyc7Ixj8R2p5RpQkk_ubSa4LPDTrdKPNsN0hOheqd4q7D9tKzTvCMyMQ4muBe_q3Rf1oAbEEhQ9ZhVrL7d7iNDQ9HLzHNruU8eJY6KsV5Inpb9Vpz0ETDwLDt4DqM5Qm7iiFzTewBvNRgGVAmKZYTK6I0f_7BmpZqoMr-85uZSiu8dk3kGo9qkgs-Mv8QKtr6ePhTqjAEJiifyzbWDE7b7CoEvPaiQOismJsoXG8T3Qa11-qyGdnrbtSoYNGow5ohiFv-kxplx-qNjm_iYVwCHgZX3ECmOE_-xlrvaf7F5DiHNl1mq15i2SnU47MWyY4adQb8KB0z5ZA6ogx3JtrkInSFWrf9F74kVYlstlVjsjIMYKTWBdXHRWpEyDzxsiJpukds26pwDG-VEDyspH3tosdD74cv4cXsy7PWDxQo1d1aMQY40lDfjGpz7FBtL_VNMgXQG_3GV1GV0jsOkKer7scJPMc-mp_m00]--></g></svg>