<svg xmlns="http://www.w3.org/2000/svg" xmlns:xlink="http://www.w3.org/1999/xlink" contentStyleType="text/css" height="372px" preserveAspectRatio="none" style="width:317px;height:372px;background:#FFFFFF;" version="1.1" viewBox="0 0 317 372" width="317px" zoomAndPan="magnify"><defs/><g><!--class nz.ac.wgtn.swen225.lc.app.UserInterface--><a href="UserInterface.html" target="_top" title="UserInterface.html" xlink:actuate="onRequest" xlink:href="UserInterface.html" xlink:show="new" xlink:title="UserInterface.html" xlink:type="simple"><g id="elem_nz.ac.wgtn.swen225.lc.app.UserInterface"><rect codeLine="7" fill="#F1F1F1" height="259.3438" id="nz.ac.wgtn.swen225.lc.app.UserInterface" rx="2.5" ry="2.5" style="stroke:#181818;stroke-width:0.5;" width="304.3936" x="6" y="87"/><ellipse cx="85.5264" cy="106.584" fill="#ADD1B2" rx="11" ry="11" style="stroke:#181818;stroke-width:1.0;"/><path d="M90.0107,112.1777 Q88.3857,113.3027 86.4795,113.3027 Q84.0889,113.3027 82.8232,111.6621 Q81.5732,110.0215 81.5732,106.959 Q81.5732,104.0371 82.7764,102.334 Q83.9951,100.6152 86.4795,100.6152 Q87.3701,100.6152 88.2295,100.8496 Q89.1045,101.0684 89.8232,101.584 L89.1826,103.1152 Q87.8232,102.3496 86.4795,102.3496 Q85.0107,102.3496 84.2764,103.4277 Q83.5576,104.5059 83.5576,106.959 Q83.5576,111.584 86.4795,111.584 Q87.7607,111.584 89.4014,110.6309 L90.0107,112.1777 Z " fill="#000000"/><text fill="#000000" font-family="sans-serif" font-size="14" lengthAdjust="spacing" textLength="95.4023" x="126.7456" y="106.0752">UserInterface</text><text fill="#000000" font-family="sans-serif" font-size="10" lengthAdjust="spacing" textLength="136.8408" x="106.0264" y="119.0684">nz.ac.wgtn.swen225.lc.app</text><line style="stroke:#181818;stroke-width:0.5;" x1="7" x2="309.3936" y1="126.168" y2="126.168"/><ellipse cx="17" cy="140.1753" fill="none" rx="3" ry="3" style="stroke:#038048;stroke-width:1.0;"/><text fill="#000000" font-family="sans-serif" font-size="14" lengthAdjust="spacing" text-decoration="underline" textLength="119.3828" x="26" y="144.2432">ui: UserInterface</text><line style="stroke:#181818;stroke-width:0.5;" x1="7" x2="309.3936" y1="151.1826" y2="151.1826"/><ellipse cx="17" cy="165.1899" fill="#84BE84" rx="3" ry="3" style="stroke:#038048;stroke-width:1.0;"/><text fill="#000000" font-family="sans-serif" font-size="14" lengthAdjust="spacing" textLength="135.0713" x="26" y="169.2578">createMenu(): void</text><polygon fill="#FFFF44" points="17,177.2046,21,181.2046,17,185.2046,13,181.2046" style="stroke:#B38D22;stroke-width:1.0;"/><text fill="#000000" font-family="sans-serif" font-size="14" lengthAdjust="spacing" textLength="167.9795" x="26" y="186.2725">createMainMenu(): void</text><ellipse cx="17" cy="199.2192" fill="#84BE84" rx="3" ry="3" style="stroke:#038048;stroke-width:1.0;"/><text fill="#000000" font-family="sans-serif" font-size="14" lengthAdjust="spacing" textLength="181.6104" x="26" y="203.2871">startNewGame(File): void</text><ellipse cx="17" cy="216.2339" fill="#84BE84" rx="3" ry="3" style="stroke:#038048;stroke-width:1.0;"/><text fill="#000000" font-family="sans-serif" font-size="14" lengthAdjust="spacing" textLength="136.0693" x="26" y="220.3018">initLevel(File): void</text><ellipse cx="17" cy="233.2485" fill="#84BE84" rx="3" ry="3" style="stroke:#038048;stroke-width:1.0;"/><text fill="#000000" font-family="sans-serif" font-size="14" lengthAdjust="spacing" textLength="140.1709" x="26" y="237.3164">initLevelInfo(): void</text><ellipse cx="17" cy="250.2632" fill="#84BE84" rx="3" ry="3" style="stroke:#038048;stroke-width:1.0;"/><text fill="#000000" font-family="sans-serif" font-size="14" lengthAdjust="spacing" textLength="127.2715" x="26" y="254.3311">startGame(): void</text><ellipse cx="17" cy="267.2778" fill="#84BE84" rx="3" ry="3" style="stroke:#038048;stroke-width:1.0;"/><text fill="#000000" font-family="sans-serif" font-size="14" lengthAdjust="spacing" textLength="198.9736" x="26" y="271.3457">goBetweenLevels(File): void</text><polygon fill="#FFFF44" points="17,279.2925,21,283.2925,17,287.2925,13,283.2925" style="stroke:#B38D22;stroke-width:1.0;"/><text fill="#000000" font-family="sans-serif" font-size="14" lengthAdjust="spacing" textLength="126.8887" x="26" y="288.3604">saveGame(): void</text><polygon fill="#FFFF44" points="17,296.3071,21,300.3071,17,304.3071,13,300.3071" style="stroke:#B38D22;stroke-width:1.0;"/><text fill="#000000" font-family="sans-serif" font-size="14" lengthAdjust="spacing" textLength="120.4834" x="26" y="305.375">endGame(): void</text><ellipse cx="17" cy="318.3218" fill="#84BE84" rx="3" ry="3" style="stroke:#038048;stroke-width:1.0;"/><text fill="#000000" font-family="sans-serif" font-size="14" lengthAdjust="spacing" textLength="188.959" x="26" y="322.3896">startGamePlayback(): void</text><ellipse cx="17" cy="335.3364" fill="#84BE84" rx="3" ry="3" style="stroke:#038048;stroke-width:1.0;"/><text fill="#000000" font-family="sans-serif" font-size="14" lengthAdjust="spacing" textLength="278.3936" x="26" y="339.4043">getGraphicsPane(): GameGraphicsPane</text></g></a><!--class javax.swing.JFrame--><g id="elem_javax.swing.JFrame"><rect codeLine="22" fill="#F1F1F1" height="39.168" id="javax.swing.JFrame" rx="2.5" ry="2.5" style="stroke:#181818;stroke-width:0.5;" width="91.624" x="112" y="12"/><ellipse cx="127" cy="31.584" fill="#ADD1B2" rx="11" ry="11" style="stroke:#181818;stroke-width:1.0;"/><path d="M131.4844,37.1777 Q129.8594,38.3027 127.9531,38.3027 Q125.5625,38.3027 124.2969,36.6621 Q123.0469,35.0215 123.0469,31.959 Q123.0469,29.0371 124.25,27.334 Q125.4688,25.6152 127.9531,25.6152 Q128.8438,25.6152 129.7031,25.8496 Q130.5781,26.0684 131.2969,26.584 L130.6563,28.1152 Q129.2969,27.3496 127.9531,27.3496 Q126.4844,27.3496 125.75,28.4277 Q125.0313,29.5059 125.0313,31.959 Q125.0313,36.584 127.9531,36.584 Q129.2344,36.584 130.875,35.6309 L131.4844,37.1777 Z " fill="#000000"/><text fill="#000000" font-family="sans-serif" font-size="14" lengthAdjust="spacing" textLength="50.75" x="145.437" y="31.0752">JFrame</text><text fill="#000000" font-family="sans-serif" font-size="10" lengthAdjust="spacing" textLength="59.624" x="141" y="44.0684">javax.swing</text></g><polygon fill="none" points="158,51.0541,152,69.0541,164,69.0541,158,51.0541" style="stroke:#181818;stroke-width:1.0;"/><path d="M158,69.0541 C158,78.5043 158,72.9003 158,86.6555 " fill="none" style="stroke:#181818;stroke-width:1.0;"/><text fill="#888888" font-family="sans-serif" font-size="10" lengthAdjust="spacing" textLength="3.5156" x="152.7422" y="350.0537">&#160;</text><text fill="#888888" font-family="sans-serif" font-size="10" lengthAdjust="spacing" textLength="185.2539" x="61.873" y="362.207">UMLDoclet 2.2.0, PlantUML 1.2024.6</text><!--SRC=[ZPD1Qm8n48Nl_egfKb2imKfx4V5GYcBH8XHFwc4QnzsqkvCbYMlL-jyRLn6jA-rUbddlpPTaCmi0S9CO36A425TwuS36v92nKF0MM7B069DDKD8R9MZGQGEicJ8_L3C2YXEtWhcYQ6P_gnuMQYzdkepGMYYsh5fJy_wXFR9aUkp8p3rzmWUztkQrG2cMWMDXbyIDngE8fC0aAG9QkEgACnwCnsUr25qSJQUmoRQoUpRMeLDo2zM5Qi9P-9YfIaFeQ42yA5UQa6erEtgbWuUAS_sgvnltIikk_uBbZehe8g5OkJwb5FrXztYkh_0p-8KLw2ToIoBEscqklcGnfTps4l4idtjSSkZ7vHtbPyxIvBe6ar19EqJE6Bk6KoqBR_E7ugLZVFfa6ZumnIz_rOg3xFvFQh4Fxq6NEhI-QxN_pij-CxGhOQxrxZNXqQ3_h6Na_uA6Q8Zw7VXZi_CgtAPahD9Shlm0]--></g></svg>