<svg xmlns="http://www.w3.org/2000/svg" xmlns:xlink="http://www.w3.org/1999/xlink" contentStyleType="text/css" height="139px" preserveAspectRatio="none" style="width:254px;height:139px;background:#FFFFFF;" version="1.1" viewBox="0 0 254 139" width="254px" zoomAndPan="magnify"><defs/><g><!--cluster nz.ac.wgtn.swen225.lc.fuzz--><g id="cluster_nz.ac.wgtn.swen225.lc.fuzz"><path d="M16.5,4 L235.3271,4 A3.75,3.75 0 0 1 237.8271,6.5 L244.8271,27.0146 L244.5,27.0146 A2.5,2.5 0 0 1 247,29.5146 L247,102.5 A2.5,2.5 0 0 1 244.5,105 L16.5,105 A2.5,2.5 0 0 1 14,102.5 L14,6.5 A2.5,2.5 0 0 1 16.5,4 " fill="none" style="stroke:#000000;stroke-width:1.5;"/><line style="stroke:#000000;stroke-width:1.5;" x1="14" x2="244.8271" y1="27.0146" y2="27.0146"/><text fill="#000000" font-family="sans-serif" font-size="14" font-weight="bold" lengthAdjust="spacing" textLength="217.8271" x="18" y="20.0752">nz.ac.wgtn.swen225.lc.fuzz</text></g><!--class FuzzTesting--><a href="FuzzTesting.html" target="_top" title="FuzzTesting.html" xlink:actuate="onRequest" xlink:href="FuzzTesting.html" xlink:show="new" xlink:title="FuzzTesting.html" xlink:type="simple"><g id="elem_FuzzTesting"><rect codeLine="6" fill="#F1F1F1" height="65.0146" id="FuzzTesting" rx="2.5" ry="2.5" style="stroke:#181818;stroke-width:0.5;" width="159.0342" x="50.5" y="32"/><ellipse cx="85.3976" cy="48" fill="#ADD1B2" rx="11" ry="11" style="stroke:#181818;stroke-width:1.0;"/><path d="M89.8819,53.5938 Q88.2569,54.7188 86.3507,54.7188 Q83.9601,54.7188 82.6944,53.0781 Q81.4444,51.4375 81.4444,48.375 Q81.4444,45.4531 82.6476,43.75 Q83.8663,42.0313 86.3507,42.0313 Q87.2413,42.0313 88.1007,42.2656 Q88.9757,42.4844 89.6944,43 L89.0538,44.5313 Q87.6944,43.7656 86.3507,43.7656 Q84.8819,43.7656 84.1476,44.8438 Q83.4288,45.9219 83.4288,48.375 Q83.4288,53 86.3507,53 Q87.6319,53 89.2726,52.0469 L89.8819,53.5938 Z " fill="#000000"/><text fill="#000000" font-family="sans-serif" font-size="14" lengthAdjust="spacing" textLength="82.8174" x="103.8192" y="53.5679">FuzzTesting</text><line style="stroke:#181818;stroke-width:0.5;" x1="51.5" x2="208.5342" y1="64" y2="64"/><line style="stroke:#181818;stroke-width:0.5;" x1="51.5" x2="208.5342" y1="72" y2="72"/><ellipse cx="61.5" cy="86.0073" fill="#84BE84" rx="3" ry="3" style="stroke:#038048;stroke-width:1.0;"/><text fill="#000000" font-family="sans-serif" font-size="14" lengthAdjust="spacing" textLength="133.0342" x="70.5" y="90.0752">fuzzingTest(): void</text></g></a><text fill="#888888" font-family="sans-serif" font-size="10" lengthAdjust="spacing" textLength="3.5156" x="117.2422" y="117.0537">&#160;</text><text fill="#888888" font-family="sans-serif" font-size="10" lengthAdjust="spacing" textLength="185.2539" x="26.373" y="129.207">UMLDoclet 2.2.0, PlantUML 1.2024.6</text><!--SRC=[JKuz2y8m4Dtz5Sz1K9GW1PVEugJWe9DsEE9PY-cb9Ad5Il-xYOBuXZlUnpqE0CQDex8c67hQDi3N74Xe51ruZfmRSXIiGvwFFcf3-aubGtf5MdLb4EKxbYnRAQFLjUrxlBx916t8UsoYUc0VAYbnElqnTGkrAOfuWJ_CKqjqKsWwo_6mrUKN6BxbmsTgbi0ELslJEijnjrrRRUBZcShKSe6z8GbHnUJ1pbTMfhCt]--></g></svg>