<svg xmlns="http://www.w3.org/2000/svg" xmlns:xlink="http://www.w3.org/1999/xlink" contentStyleType="text/css" height="170px" preserveAspectRatio="none" style="width:224px;height:170px;background:#FFFFFF;" version="1.1" viewBox="0 0 224 170" width="224px" zoomAndPan="magnify"><defs/><g><!--class nz.ac.wgtn.swen225.lc.recorder.Recorder--><a href="Recorder.html" target="_top" title="Recorder.html" xlink:actuate="onRequest" xlink:href="Recorder.html" xlink:show="new" xlink:title="Recorder.html" xlink:type="simple"><g id="elem_nz.ac.wgtn.swen225.lc.recorder.Recorder"><rect codeLine="7" fill="#F1F1F1" height="132.2412" id="nz.ac.wgtn.swen225.lc.recorder.Recorder" rx="2.5" ry="2.5" style="stroke:#181818;stroke-width:0.5;" width="211.0146" x="6" y="12"/><ellipse cx="29.2863" cy="31.584" fill="#ADD1B2" rx="11" ry="11" style="stroke:#181818;stroke-width:1.0;"/><path d="M33.7707,37.1777 Q32.1457,38.3027 30.2395,38.3027 Q27.8488,38.3027 26.5832,36.6621 Q25.3332,35.0215 25.3332,31.959 Q25.3332,29.0371 26.5363,27.334 Q27.7551,25.6152 30.2395,25.6152 Q31.1301,25.6152 31.9895,25.8496 Q32.8645,26.0684 33.5832,26.584 L32.9426,28.1152 Q31.5832,27.3496 30.2395,27.3496 Q28.7707,27.3496 28.0363,28.4277 Q27.3176,29.5059 27.3176,31.959 Q27.3176,36.584 30.2395,36.584 Q31.5207,36.584 33.1613,35.6309 L33.7707,37.1777 Z " fill="#000000"/><text fill="#000000" font-family="sans-serif" font-size="14" lengthAdjust="spacing" textLength="62.877" x="93.9896" y="31.0752">Recorder</text><text fill="#000000" font-family="sans-serif" font-size="10" lengthAdjust="spacing" textLength="160.6006" x="45.1277" y="44.0684">nz.ac.wgtn.swen225.lc.recorder</text><line style="stroke:#181818;stroke-width:0.5;" x1="7" x2="216.0146" y1="51.168" y2="51.168"/><ellipse cx="17" cy="65.1753" fill="#84BE84" rx="3" ry="3" style="stroke:#038048;stroke-width:1.0;"/><text fill="#000000" font-family="sans-serif" font-size="14" lengthAdjust="spacing" textLength="106.8184" x="26" y="69.2432">Recorder(Path)</text><ellipse cx="17" cy="82.1899" fill="#84BE84" rx="3" ry="3" style="stroke:#038048;stroke-width:1.0;"/><text fill="#000000" font-family="sans-serif" font-size="14" lengthAdjust="spacing" textLength="185.0146" x="26" y="86.2578">record(PlayerAction): void</text><ellipse cx="17" cy="99.2046" fill="#84BE84" rx="3" ry="3" style="stroke:#038048;stroke-width:1.0;"/><text fill="#000000" font-family="sans-serif" font-size="14" lengthAdjust="spacing" textLength="153.877" x="26" y="103.2725">startLevel(Path): void</text><ellipse cx="17" cy="116.2192" fill="#84BE84" rx="3" ry="3" style="stroke:#038048;stroke-width:1.0;"/><text fill="#000000" font-family="sans-serif" font-size="14" lengthAdjust="spacing" textLength="115.8623" x="26" y="120.2871">endLevel(): void</text><ellipse cx="17" cy="133.2339" fill="#84BE84" rx="3" ry="3" style="stroke:#038048;stroke-width:1.0;"/><text fill="#000000" font-family="sans-serif" font-size="14" lengthAdjust="spacing" textLength="120.4834" x="26" y="137.3018">endGame(): void</text></g></a><text fill="#888888" font-family="sans-serif" font-size="10" lengthAdjust="spacing" textLength="3.5156" x="106.2422" y="148.0537">&#160;</text><text fill="#888888" font-family="sans-serif" font-size="10" lengthAdjust="spacing" textLength="185.2539" x="15.373" y="160.207">UMLDoclet 2.2.0, PlantUML 1.2024.6</text><!--SRC=[VP11ImCn48Nl_HLZGTX52NNHIv6287YfK1HFRGz3TjeDP2TBPjpIYl_TTBTBiOYv9BplvV5u001NJSHjZU1n7puLf2P5nj4e8H1IOAn96hJqJWr6r1210rF7ArSIKDte7ZQEV2cNQWghGf8xtNeKWV6Zk0DDx-vdRsH3B2ck-2HDPdmmQCrkgsnaHrmK3yPR4q_6CQ30_nOpXC9oEJnDfRLVh-6hQt4yDmFA5gXLVjRxc6oHng3uPDK5pgVG1bUUFQ8OTKuj-Vxt9ISkU_eNUKbh_WBV_JJ4cZflGZXUA_vudJy7wzFyXIdCv1PI8zQamdLBKLAjBFy1]--></g></svg>